<?xml version="1.0" encoding="utf-8"?>
<!-- Generator: Adobe Illustrator 26.0.0, SVG Export Plug-In . SVG Version: 6.00 Build 0)  -->
<svg version="1.1" id="Layer_1" xmlns="http://www.w3.org/2000/svg" xmlns:xlink="http://www.w3.org/1999/xlink" x="0px" y="0px"
	 viewBox="0 0 766.9 698" style="enable-background:new 0 0 766.9 698;" xml:space="preserve">
<style type="text/css">
	.st0{fill:#FFFFFF;}
</style>
<path class="st0" d="M30.5,313.5l388.6-31.5c0,0,61.3-11,68.7-40.9s-5.8-62.8-48.2-41.6c0,0,13.1-48.2-3.7-48.2
	s-25.6,15.3-25.6,15.3s16.8-116.9-51.1-116.9s-94.9,89.1-98.6,125.6c0,0-9.5-73-55.5-65.7s-43.8,62.8-43.8,62.8s-6.6-22.6-11.7-20.4
	s-20.4,12.4-21.9,53.3c0,0-19-59.2-56.2-46s-32.1,86.9-32.1,86.9s0-14.6-16.1-7.3c-12.8,5.8-5.2,50.4-1.6,68
	C22.5,311,26.3,313.8,30.5,313.5z"/>
<path class="st0" d="M410.4,441l290.1,17.1c3,0.2,5.9-0.9,8-3c13.4-13.2,58.6-63.3,3.1-91.7c-29.9-5.8-44.6,19.7-44.6,19.7
	s0.7-30.7-13.9-27c-14.6,3.7-24.1,21.9-24.1,21.9s-0.7-34.2-18.3-31c-17.5,3.2-28.5,19.3-28.5,19.3s21.2-138-20.4-125.6
	c-41.6,12.4-72.3,86.9-72.3,113.9c0,0,0-10.2-12.4-8.8s-11.7,22.6-11.7,22.6s-8-30-21.9-19.4c-13.9,10.6-18.3,40.7-18.3,40.7
	s-24.8-38.9-45.3-5.3c-18,29.6,17.8,50.7,26.6,55.3C407.8,440.5,409.1,440.9,410.4,441z"/>
</svg>
