<?xml version="1.0" encoding="utf-8"?>
<!-- Generator: Adobe Illustrator 26.0.0, SVG Export Plug-In . SVG Version: 6.00 Build 0)  -->
<svg version="1.1" id="Layer_1" xmlns="http://www.w3.org/2000/svg" xmlns:xlink="http://www.w3.org/1999/xlink" x="0px" y="0px"
	 viewBox="0 0 766.9 698" style="enable-background:new 0 0 766.9 698;" xml:space="preserve">
<style type="text/css">
	.st0{fill:#EA5A1E;}
	.st1{fill:#F7A41D;}
	.st2{fill:#020203;}
	.st3{fill:#FFFFFF;}
</style>
<polygon class="st0" points="228.6,112.8 201.6,78.1 228.6,95.5 211.1,41.6 244.7,89.1 244.7,24.8 266.6,68.8 284.1,21.9 288.5,61 
	316.2,21.9 316.2,73 268.8,189.9 "/>
<polygon class="st0" points="569,698 756.7,698 767.6,692 767.6,681.1 737,685.4 767.6,648.9 767.6,633.6 724.5,665.8 750.8,564.9 
	691.7,651.9 633.2,569.3 649.3,638.7 615,617.5 636.9,665 558,621.2 618.6,686.9 552.2,686.2 "/>
<polygon class="st0" points="0,602.8 0,697.5 155.6,697.5 172.4,687.5 119.8,676.3 201.6,631 113.2,639.1 245.4,534.6 70.1,624.5 
	94.9,518.6 31.4,596 40.9,460.1 "/>
<polygon class="st1" points="254.5,263.7 126.4,393.7 207.4,413.4 132.2,547.8 294.3,371 236.6,377 335.2,258 "/>
<polygon class="st1" points="479.5,414.5 573,419.6 564.2,479.5 649.3,470 486.1,585.4 558.4,572.3 479.5,676 497,612.4 
	323.2,664.3 537.9,516.8 389.7,555.5 526.2,467.1 "/>
<polygon class="st1" points="539.7,0 584.3,53.3 650,37.2 585.8,98.6 650,90.6 552.2,182.6 640.5,159.9 628.8,301.6 711.3,92 
	644.2,122.7 701.9,47.5 647.8,64.3 685.1,10.2 612.8,21.9 620.4,0 "/>
<path class="st2" d="M31.8,178.2c0,0,4.4-15.3,11.7-18.6l-11.7-22.3l-13.5,24.5L31.8,178.2z"/>
<path class="st2" d="M58.4,147.9c0,0,9.5-11,18.3-8.8V57L30.9,80.3L58.4,147.9z"/>
<path class="st2" d="M89.5,137.3c0,0,14.2-5.1,22.3,2.6l13.1-23.4l-31.8-6.2L89.5,137.3z"/>
<path class="st2" d="M413.4,62.4c0,0,6.6,5.1,9.9,24.3l74.9-29L487.9,9.5L413.4,62.4z"/>
<path class="st2" d="M427.3,100.1c0,0,3.7,6.9,0,17.5l36.5-4l1.5-29.9L427.3,100.1z"/>
<path class="st2" d="M691,355c0,0,7.3-6.2,14.6-2.6l27-67.2h-31L691,355z"/>
<path class="st2" d="M721.4,355c0,0,2.2-0.8,7.7,5.4l21.2-11.7l-20.1-16.1L721.4,355z"/>
<polygon class="st2" points="686.5,475.5 703,475.5 711,548.2 677,548.2 "/>
<path class="st2" d="M727.4,455.8c-1.1,1.8-10.2,8-10.2,8l12.4,31.4l17.1-22.3L727.4,455.8z"/>
<path class="st2" d="M358.6,390.4c0,0-0.4,13.1,4.7,20.1L315.9,423l5.5-38.7L358.6,390.4z"/>
<path class="st2" d="M369.2,427.3c0,0,0.7,4.4,6.6,7.7l-32.9,23.4l-7.3-18.6L369.2,427.3z"/>
<path class="st3" d="M30.5,313.5l388.6-31.5c0,0,61.3-11,68.7-40.9s-5.8-62.8-48.2-41.6c0,0,13.1-48.2-3.7-48.2
	s-25.6,15.3-25.6,15.3s16.8-116.9-51.1-116.9s-94.9,89.1-98.6,125.6c0,0-9.5-73-55.5-65.7s-43.8,62.8-43.8,62.8s-6.6-22.6-11.7-20.4
	s-20.4,12.4-21.9,53.3c0,0-19-59.2-56.2-46s-32.1,86.9-32.1,86.9s0-14.6-16.1-7.3c-12.8,5.8-5.2,50.4-1.6,68
	C22.5,311,26.3,313.8,30.5,313.5z"/>
<path class="st3" d="M410.4,441l290.1,17.1c3,0.2,5.9-0.9,8-3c13.4-13.2,58.6-63.3,3.1-91.7c-29.9-5.8-44.6,19.7-44.6,19.7
	s0.7-30.7-13.9-27c-14.6,3.7-24.1,21.9-24.1,21.9s-0.7-34.2-18.3-31c-17.5,3.2-28.5,19.3-28.5,19.3s21.2-138-20.4-125.6
	c-41.6,12.4-72.3,86.9-72.3,113.9c0,0,0-10.2-12.4-8.8s-11.7,22.6-11.7,22.6s-8-30-21.9-19.4c-13.9,10.6-18.3,40.7-18.3,40.7
	s-24.8-38.9-45.3-5.3c-18,29.6,17.8,50.7,26.6,55.3C407.8,440.5,409.1,440.9,410.4,441z"/>
</svg>
