<?xml version="1.0" encoding="utf-8"?>
<!-- Generator: Adobe Illustrator 26.0.0, SVG Export Plug-In . SVG Version: 6.00 Build 0)  -->
<svg version="1.1" id="Layer_1" xmlns="http://www.w3.org/2000/svg" xmlns:xlink="http://www.w3.org/1999/xlink" x="0px" y="0px"
	 viewBox="0 0 425.5 397.4" style="enable-background:new 0 0 425.5 397.4;" xml:space="preserve">
<style type="text/css">
	.st0{fill:#8E8E8E;}
	.st1{fill:#2D2D2D;}
</style>
<ellipse transform="matrix(0.4305 -0.9026 0.9026 0.4305 -58.2094 305.1769)" class="st0" cx="212.7" cy="198.7" rx="194.4" ry="216.6"/>
<path class="st1" d="M122.1,114.5l18.3-62.4c0.4-1.4,1.9-2.2,3.3-1.8c1,0.3,1.7,1.1,1.9,2l10.8,56.5c0.3,1.4,1.7,2.4,3.1,2.1
	c0.4-0.1,0.7-0.2,1-0.4l81.7-57.8c1.2-0.8,2.8-0.6,3.7,0.6c0.6,0.9,0.7,2.1,0.1,3l-56.6,89.3c-0.8,1.2-0.4,2.9,0.8,3.6
	c0.1,0.1,0.3,0.2,0.5,0.2l61.6,23.9c1.4,0.5,2,2.1,1.5,3.4c-0.4,1-1.3,1.6-2.3,1.7l-82.6,4.4c-1.2,0.1-2.2,1-2.4,2.1l-16.4,86.3
	c-0.3,1.4-1.6,2.4-3.1,2.1c-1.1-0.2-2-1.1-2.1-2.2l-12-75.1c-0.2-1-0.9-1.8-1.8-2.1l-76.6-24.6c-1.4-0.4-2.2-1.9-1.7-3.3
	c0.2-0.8,0.8-1.4,1.6-1.7l55.6-22.1c1.4-0.5,2-2.1,1.5-3.4c-0.2-0.5-0.6-0.9-1-1.2l-41.6-27.2c-1.2-0.8-1.5-2.5-0.7-3.7
	c0.6-0.9,1.7-1.3,2.7-1.1l48.4,10.6C120.3,116.6,121.7,115.8,122.1,114.5z"/>
<path class="st1" d="M315.8,180.9l11.4-64.7c0.3-1.5,1.7-2.5,3.3-2.3c1.1,0.2,2,1.1,2.2,2.2l15.1,71.2c0.2,1,0.9,1.8,1.9,2.1
	l53.1,18.2c1.5,0.5,2.3,2.1,1.8,3.6c-0.3,0.9-1,1.5-1.9,1.8l-59.4,17.6c-0.8,0.2-1.4,0.8-1.8,1.5L327,264.1
	c-0.6,1.4-2.3,2.1-3.7,1.4c-0.6-0.3-1.1-0.8-1.4-1.4l-17.7-40c-0.3-0.8-1-1.3-1.8-1.6l-40.3-11.8c-1.5-0.4-2.3-2-1.9-3.5
	c0.2-0.8,0.8-1.4,1.6-1.8l52.4-22.4C315,182.7,315.6,181.9,315.8,180.9z"/>
<path class="st1" d="M220.5,249l10.4-43.3c0.4-1.5,1.9-2.5,3.4-2.1c1.1,0.3,1.9,1.1,2.1,2.2l13.5,68.5c0.2,1.2,1.2,2.1,2.3,2.3
	l57.7,9.4c1.6,0.3,2.6,1.7,2.4,3.3c-0.2,1.1-1,2-2,2.3L255.2,308c-1.1,0.3-1.9,1.3-2,2.5l-3.1,35.3c-0.1,1.6-1.5,2.7-3.1,2.6
	c-0.9-0.1-1.7-0.6-2.2-1.4l-22-36.2c-0.8-1.3-2.6-1.8-3.9-1c-0.1,0.1-0.2,0.1-0.3,0.2l-33.5,26.6c-1.2,1-3,0.8-4-0.4
	c-0.6-0.8-0.8-1.8-0.5-2.7l16.9-49c0.3-1,0.1-2.1-0.6-2.8l-31.1-35c-1-1.2-1-3,0.2-4c0.7-0.6,1.6-0.8,2.4-0.7l48.6,9.1
	C218.7,251.4,220.1,250.5,220.5,249z"/>
<path class="st1" d="M67.2,227.2l8.8-21.1c0.6-1.4,2.2-2.1,3.7-1.5c1,0.4,1.7,1.4,1.7,2.5l1.1,30.4c0,1.2,0.8,2.3,2,2.6l19.5,5.7
	c1.5,0.4,2.3,2,1.9,3.5c-0.3,0.9-0.9,1.6-1.8,1.9l-18.3,6.2c-1.2,0.4-1.9,1.5-1.9,2.7l0.3,23.9c0,1.6-1.2,2.8-2.8,2.8
	c-1.1,0-2.1-0.6-2.5-1.6l-13.7-28.3c-0.2-0.5-0.6-0.9-1-1.1l-29.6-18.7c-1.3-0.8-1.7-2.5-0.9-3.9c0.5-0.7,1.2-1.2,2.1-1.3l29.2-3.1
	C65.9,228.8,66.8,228.2,67.2,227.2z"/>
</svg>
