<?xml version="1.0" encoding="utf-8"?>
<!-- Generator: Adobe Illustrator 26.0.0, SVG Export Plug-In . SVG Version: 6.00 Build 0)  -->
<svg version="1.1" id="Layer_1" xmlns="http://www.w3.org/2000/svg" xmlns:xlink="http://www.w3.org/1999/xlink" x="0px" y="0px"
	 viewBox="0 0 505.4 305.5" style="enable-background:new 0 0 505.4 305.5;" xml:space="preserve">
<style type="text/css">
	.st0{fill:#8E8E8E;}
	.st1{fill:#2D2D2D;}
</style>
<ellipse transform="matrix(8.941577e-02 -0.996 0.996 8.941577e-02 77.9425 390.7832)" class="st0" cx="252.7" cy="152.8" rx="121.2" ry="202.5"/>
<polygon class="st1" points="97.7,154.3 97.7,182.7 123.3,182.7 161.6,205.8 197.7,174.9 227.5,220.2 259,196 283.5,227.8 
	327.7,197.8 353.3,232.6 398,212.9 398,175.3 364.6,201.7 326.9,165.4 288.2,196 260.6,170.8 230.6,192.8 195.1,142.5 160.6,174.9 
	127.6,148.1 "/>
<polygon class="st1" points="108,124.4 113.8,96.6 139.8,85.7 154.1,116 197.5,85.3 226.7,116 271.7,90.4 294.6,131.6 349.8,106.9 
	371.9,142.5 406.9,137.8 417.2,154.3 365.7,171.8 340.9,133.7 296.1,158.4 262.6,116 228.6,146.1 188.4,111 155.6,142.5 135.1,116 
	"/>
</svg>
