<svg id="Layer_1" data-name="Layer 1" xmlns="http://www.w3.org/2000/svg" viewBox="0 0 425.47 397.43"><defs><style>.cls-1{fill:#ea5a1e;}.cls-2{fill:#010101;}</style></defs><ellipse class="cls-1" cx="343.51" cy="243.51" rx="194.36" ry="216.63" transform="translate(-154.94 403.93) rotate(-64.5)"/><path class="cls-2" d="M252.85,159.26,271.16,96.9a2.64,2.64,0,0,1,5.13.25l10.78,56.49a2.64,2.64,0,0,0,4.12,1.66l81.66-57.84a2.64,2.64,0,0,1,3.76,3.57L320,190.33a2.64,2.64,0,0,0,1.27,3.88l61.6,23.92a2.64,2.64,0,0,1-.82,5.1l-82.62,4.43A2.64,2.64,0,0,0,297,229.8l-16.37,86.32a2.64,2.64,0,0,1-5.21-.08l-12-75.07a2.64,2.64,0,0,0-1.8-2.1l-76.56-24.63a2.65,2.65,0,0,1-.16-5l55.6-22.12a2.65,2.65,0,0,0,.47-4.68l-41.59-27.17a2.65,2.65,0,0,1,2-4.8l48.36,10.61A2.64,2.64,0,0,0,252.85,159.26Z" transform="translate(-130.78 -44.79)"/><path class="cls-2" d="M446.56,225.72,458,161a2.82,2.82,0,0,1,5.53-.09l15.06,71.22a2.83,2.83,0,0,0,1.85,2.08l53.12,18.25a2.81,2.81,0,0,1-.11,5.36l-59.39,17.65A2.86,2.86,0,0,0,472.3,277l-14.52,31.88a2.82,2.82,0,0,1-5.14,0l-17.69-40a2.77,2.77,0,0,0-1.78-1.56l-40.33-11.84a2.82,2.82,0,0,1-.31-5.29l52.36-22.35A2.82,2.82,0,0,0,446.56,225.72Z" transform="translate(-130.78 -44.79)"/><path class="cls-2" d="M351.3,293.79l10.39-43.27a2.85,2.85,0,0,1,5.57.12l13.46,68.46a2.84,2.84,0,0,0,2.34,2.27l57.67,9.37a2.86,2.86,0,0,1,.36,5.56L386,352.78a2.85,2.85,0,0,0-2,2.48l-3.12,35.28a2.85,2.85,0,0,1-5.28,1.23l-22-36.2a2.85,2.85,0,0,0-4.21-.76l-33.5,26.62a2.85,2.85,0,0,1-4.47-3.17l16.94-49a2.86,2.86,0,0,0-.56-2.83l-31.09-35a2.85,2.85,0,0,1,2.66-4.7l48.6,9.13A2.85,2.85,0,0,0,351.3,293.79Z" transform="translate(-130.78 -44.79)"/><path class="cls-2" d="M198,272l8.8-21.06a2.81,2.81,0,0,1,5.4,1l1.13,30.44a2.82,2.82,0,0,0,2,2.6l19.48,5.71a2.81,2.81,0,0,1,.11,5.36l-18.34,6.17a2.79,2.79,0,0,0-1.91,2.69l.27,23.94a2.81,2.81,0,0,1-5.33,1.26l-13.74-28.26a2.83,2.83,0,0,0-1-1.15L165.3,282a2.8,2.8,0,0,1,1.2-5.16l29.2-3.12A2.81,2.81,0,0,0,198,272Z" transform="translate(-130.78 -44.79)"/></svg>