<svg id="Layer_1" data-name="Layer 1" xmlns="http://www.w3.org/2000/svg" viewBox="0 0 416.49 398.8"><defs><style>.cls-1{fill:#008c6a;}.cls-2{fill:#010101;}</style></defs><ellipse class="cls-1" cx="358.46" cy="243.51" rx="186.08" ry="220.21" transform="matrix(0.61, -0.79, 0.79, 0.61, -203.12, 335.65)"/><path class="cls-2" d="M375.61,91.86c-13.95.14-25,8.85-24.69,19.45.25,8.4,7.57,15.44,17.54,17.95L347,238.56l-17.59-13.49L326,142.29c.39-.36.78-.7,1.16-1.07,11.16-11.12,13.38-26.91,5-35.26s-24.28-6.11-35.43,5-13.39,26.9-5,35.26c4.17,4.14,10.18,5.67,16.54,4.81l-1.1,55.25L277.51,184.8c6.5-17,5.83-32.83-9.23-39.48-17.6-7.77-28.45,5-36.28,23.16s-4.27,37.29,7.94,42.68c7.7,3.4,17,.53,24.79-6.62l10.81,8.29L257,231.21c-12.75-9.06-27.43-10.3-33.36-2.55-6.16,8-.58,22.66,12.48,32.67s28.63,11.61,34.79,3.58c3.75-4.89,3.12-12.23-.87-19.48L289,223.15l32,24.56-67.87,42.61c-7.68-7.28-17.1-10-23.33-5.88-7.86,5.15-7.66,19.08.44,31.11s21,17.61,28.9,12.46c4.4-2.88,6.27-8.52,5.64-15l77.55-48.91L367,283l-60.67,38.14c-10.18-9.33-22.63-12.45-30.14-6.74-9,6.82-7.5,23.6,3.27,37.48s26.78,19.62,35.75,12.8c7-5.34,7.64-16.78,2.41-28.16l64-42.33,9.66,7.41a10.83,10.83,0,0,1,4,6.47l1.23,6.08a10.91,10.91,0,0,1-3.36,10.27l-7.12,6.41a11.07,11.07,0,0,0,1.8,17.63l39.28,26.86c3.45,2.14,5.9-1.19,3.31-4.31l-20.89-23a1.65,1.65,0,0,1,1.76-2.64l35.92,12.86c6.39,2,7.51-1.24,3-6.23L426,329a1.81,1.81,0,0,1,1.56-3.11L477.28,335c7.16,1.26,8.52-1.4,3-6.23l-37.46-24a3,3,0,0,1,1.1-5.13s11.38-11.56,25.84-11.68a9.33,9.33,0,0,1,4.55,1.18l19.48,10.62c3,1.4,6.82-1.25,4.4-3.47L467,266.88a9.27,9.27,0,0,0-13.61-1l-22.6,21.63a2.41,2.41,0,0,1-4-1.9L433,181.88c10.14-5.9,15.24-16.44,11.54-25.15-4.17-9.83-18-13.59-30.82-8.4S393.8,165.7,398,175.54c2.16,5.09,6.92,8.54,12.78,10l-6.31,89.4-37.1-24.18L383.6,129.44c10.55-2.38,18.11-9.86,17.85-18.64C401.14,100.2,389.57,91.72,375.61,91.86ZM300.17,130.7c-2.26-4.83.91-11,7.1-13.77s13-1.12,15.3,3.71-.91,11-7.1,13.77S302.44,135.53,300.17,130.7ZM257.73,254.79c-2.51,3.28-9,2.53-14.43-1.66s-7.86-10.24-5.35-13.51,9-2.53,14.44,1.66S260.24,251.52,257.73,254.79Zm-9.4,52.12c2.72,4.14,3.39,8.49,1.49,9.7s-5.65-1.16-8.37-5.3-3.4-8.5-1.5-9.71S245.6,302.76,248.33,306.91Zm52.59,30.2c2.25,3.54,2,7.69-.55,9.27s-6.46,0-8.71-3.54-2-7.7.54-9.28S298.66,333.57,300.92,337.11ZM246.23,190c-5.45-2.76-7-10.72-3.52-17.78s10.78-10.53,16.24-7.76,7,10.72,3.52,17.78S251.69,192.81,246.23,190ZM409,168.23c-1.1-4.42,3.09-9.16,9.36-10.59s12.23,1,13.33,5.42-3.09,9.16-9.36,10.59S410.14,172.65,409,168.23Zm-22-57.44c-.23,3.39-5,5.74-10.7,5.25s-10.11-3.63-9.88-7,5-5.74,10.7-5.25S387.23,107.4,387,110.79Z" transform="translate(-150.21 -44.11)"/></svg>