<?xml version="1.0" encoding="utf-8"?>
<!-- Generator: Adobe Illustrator 26.0.0, SVG Export Plug-In . SVG Version: 6.00 Build 0)  -->
<svg version="1.1" id="Layer_1" xmlns="http://www.w3.org/2000/svg" xmlns:xlink="http://www.w3.org/1999/xlink" x="0px" y="0px"
	 viewBox="0 0 405.1 405.9" style="enable-background:new 0 0 405.1 405.9;" xml:space="preserve">
<style type="text/css">
	.st0{fill:#8E8E8E;}
	.st1{fill:#2D2D2D;}
</style>
<ellipse transform="matrix(0.7008 -0.7134 0.7134 0.7008 -84.1663 205.2193)" class="st0" cx="202.6" cy="202.9" rx="213.4" ry="191.5"/>
<path class="st1" d="M255.8,334.4l94.4-100.7c5.8-6.2,8-15,5.7-23.2l-32-114.4c-3.4-12.3-13.8-21.5-26.5-23.4L188.9,56.4
	c-13.2-2-26.5,2.4-35.9,11.9l-96.2,96.4c-7,7-9.7,17.2-7.1,26.7l32,117.2c4.7,17.2,19.8,29.6,37.6,30.9l105,7.3
	C236.2,347.5,247.7,343,255.8,334.4z M214,312.6l-74.3-12.2c-16.7-2.8-30.2-15.3-34.2-31.8l-14.2-59.3c-4.2-17.6,1-36.1,13.7-48.9
	l55.4-55.5C170.3,95,184,90,197.9,91.1l40.4,3.3c7.3,0.6,14.4,3.1,20.5,7.3l41.1,28.2c10,6.9,16.8,17.5,18.8,29.4l3.9,22.8
	c2.4,13.7-1.4,27.8-10.3,38.4l-67.4,80.5C237.3,310.1,225.6,314.5,214,312.6z"/>
<path class="st1" d="M235.1,279.4l3.9-15.6c2.8-11.1,9.6-20.7,19.2-27l35.4-23.1c14.2-9.3,18.2-28.3,8.9-42.5
	c-0.5-0.8-1.1-1.6-1.7-2.3l-27.6-34.7c-9.2-11.6-22.9-18.7-37.7-19.6l-34.3-2c-17.5-1-34.1,8.1-42.6,23.5L147,157
	c-3.5,6.2-8,11.8-13.3,16.4l-6.7,5.9c-8.2,7.2-12.4,17.9-11.2,28.7l4.6,42.4c1.4,12.9,10.2,23.9,22.5,28l58.4,19.6
	c13.8,4.7,28.7-2.7,33.4-16.5C234.7,280.8,234.9,280.1,235.1,279.4z M255.6,202l-9.8,3.6c-7.8,2.8-14.6,7.9-19.5,14.7l-24.6,33.6
	c-7.6,10.4-22.2,12.8-32.8,5.3l-4.3-3c-9.4-6.7-12.8-19.1-8.2-29.7l21-47.6c5-11.4,15.4-19.5,27.7-21.6l21.5-3.6
	c9.5-1.6,19.2,1.5,26,8.4l9.7,9.8c7.2,7.2,7.1,18.8,0,26C260.4,199.6,258.1,201.1,255.6,202z"/>
<path class="st1" d="M195.6,199.1c2.4-2,3.9-4.8,4.4-7.9c1.1-6.7,5.6-17.9,24-14.5c25.8,4.8-4.8,25.9-13.7,30.8s-4.8,25.9-25.3,25.5
	C165.7,232.4,174.1,216.9,195.6,199.1z"/>
<ellipse class="st1" cx="271.4" cy="42" rx="14" ry="14"/>
<ellipse class="st1" cx="186.8" cy="34.8" rx="14" ry="14"/>
<ellipse class="st1" cx="112.1" cy="69.9" rx="14" ry="14"/>
<ellipse class="st1" cx="56.3" cy="129.4" rx="14" ry="14"/>
<ellipse class="st1" cx="31.1" cy="214.2" rx="14" ry="14"/>
<ellipse class="st1" cx="45.5" cy="288.2" rx="14" ry="14"/>
<ellipse class="st1" cx="105.8" cy="359.4" rx="14" ry="14"/>
<ellipse class="st1" cx="201.2" cy="373.8" rx="14" ry="14"/>
<ellipse class="st1" cx="283.1" cy="342.3" rx="14" ry="14"/>
<ellipse class="st1" cx="348.8" cy="269.2" rx="14" ry="14"/>
<ellipse class="st1" cx="372.2" cy="182.6" rx="14" ry="14"/>
<ellipse class="st1" cx="346.1" cy="93.4" rx="14" ry="14"/>
</svg>
