<svg id="Layer_1" data-name="Layer 1" xmlns="http://www.w3.org/2000/svg" viewBox="0 0 405.12 405.89"><defs><style>.cls-1{fill:#f7a41d;}.cls-2{fill:#010101;}</style></defs><ellipse class="cls-1" cx="359.29" cy="242.97" rx="213.43" ry="191.48" transform="translate(-222.56 288.98) rotate(-45.51)"/><path class="cls-2" d="M412.58,374.38,507,273.7a24.28,24.28,0,0,0,5.67-23.16l-32-114.45a32.47,32.47,0,0,0-26.45-23.38L345.61,96.42a41.91,41.91,0,0,0-35.91,11.86l-96.17,96.35a27.56,27.56,0,0,0-7.07,26.71l32,117.21a42,42,0,0,0,37.61,30.88l105,7.31A39.42,39.42,0,0,0,412.58,374.38ZM370.73,352.6l-74.32-12.22a42.2,42.2,0,0,1-34.16-31.79L248,249.32a52,52,0,0,1,13.74-48.89l55.41-55.53a47.47,47.47,0,0,1,37.49-13.77l40.44,3.34a42.31,42.31,0,0,1,20.46,7.29L456.62,170a44.86,44.86,0,0,1,18.81,29.41l3.9,22.82A47.37,47.37,0,0,1,469,260.65l-67.37,80.49A33.2,33.2,0,0,1,370.73,352.6Z" transform="translate(-156.74 -40.02)"/><path class="cls-2" d="M391.85,319.42l3.9-15.64a45.3,45.3,0,0,1,19.2-27l35.37-23.08a30.73,30.73,0,0,0,7.26-44.84L430,174.19a52,52,0,0,0-37.72-19.58l-34.26-2a45.8,45.8,0,0,0-42.64,23.48l-11.66,20.94a61.63,61.63,0,0,1-13.31,16.44l-6.74,5.88a33.33,33.33,0,0,0-11.22,28.68l4.57,42.36a33.32,33.32,0,0,0,22.51,28l58.35,19.59A26.33,26.33,0,0,0,391.85,319.42ZM412.33,242l-9.82,3.55A41.93,41.93,0,0,0,383,260.2l-24.62,33.59a23.65,23.65,0,0,1-32.77,5.32l-4.26-3a24.33,24.33,0,0,1-8.17-29.67l21-47.61a37,37,0,0,1,27.67-21.55l21.46-3.61a29.79,29.79,0,0,1,26,8.35l9.74,9.75A18.37,18.37,0,0,1,412.33,242Z" transform="translate(-156.74 -40.02)"/><path class="cls-2" d="M352.29,239.07a12.9,12.9,0,0,0,4.4-7.93c1.08-6.69,5.62-17.92,24.05-14.52,25.81,4.77-4.76,25.86-13.7,30.75s-4.76,25.86-25.28,25.46C322.42,272.46,330.86,256.89,352.29,239.07Z" transform="translate(-156.74 -40.02)"/><ellipse class="cls-2" cx="271.42" cy="41.97" rx="14" ry="14.03"/><ellipse class="cls-2" cx="186.81" cy="34.75" rx="14" ry="14.03"/><ellipse class="cls-2" cx="112.1" cy="69.93" rx="14" ry="14.03"/><ellipse class="cls-2" cx="56.29" cy="129.45" rx="14" ry="14.03"/><ellipse class="cls-2" cx="31.09" cy="214.22" rx="14" ry="14.03"/><ellipse class="cls-2" cx="45.49" cy="288.17" rx="14" ry="14.03"/><ellipse class="cls-2" cx="105.8" cy="359.41" rx="14" ry="14.03"/><ellipse class="cls-2" cx="201.21" cy="373.84" rx="14" ry="14.03"/><ellipse class="cls-2" cx="283.12" cy="342.28" rx="14" ry="14.03"/><ellipse class="cls-2" cx="348.83" cy="269.23" rx="14" ry="14.03"/><ellipse class="cls-2" cx="372.23" cy="182.65" rx="14" ry="14.03"/><ellipse class="cls-2" cx="346.13" cy="93.37" rx="14" ry="14.03"/></svg>