<?xml version="1.0" encoding="utf-8"?>
<!-- Generator: Adobe Illustrator 26.0.0, SVG Export Plug-In . SVG Version: 6.00 Build 0)  -->
<svg version="1.1" id="Layer_1" xmlns="http://www.w3.org/2000/svg" xmlns:xlink="http://www.w3.org/1999/xlink" x="0px" y="0px"
	 viewBox="0 0 416.5 398.8" style="enable-background:new 0 0 416.5 398.8;" xml:space="preserve">
<style type="text/css">
	.st0{fill:#8E8E8E;}
	.st1{fill:#2D2D2D;}
</style>
<ellipse transform="matrix(0.6112 -0.7915 0.7915 0.6112 -78.2541 242.724)" class="st0" cx="207.9" cy="201" rx="185.7" ry="219.8"/>
<path class="st1" d="M225.4,47.8c-14,0.1-25,8.8-24.7,19.4c0.2,8.4,7.6,15.4,17.5,17.9l-21.5,109.3L179.2,181l-3.4-82.8
	c0.4-0.4,0.8-0.7,1.2-1.1c11.2-11.1,13.4-26.9,5-35.3s-24.3-6.1-35.4,5s-13.4,26.9-5,35.3c4.2,4.1,10.2,5.7,16.5,4.8l-1.1,55.2
	l-29.7-21.5c6.5-17,5.8-32.8-9.2-39.5c-17.6-7.8-28.4,5-36.3,23.2s-4.3,37.3,7.9,42.7c7.7,3.4,17,0.5,24.8-6.6l10.8,8.3l-18.5,18.4
	c-12.8-9.1-27.4-10.3-33.4-2.6c-6.2,8-0.6,22.7,12.5,32.7s28.6,11.6,34.8,3.6c3.8-4.9,3.1-12.2-0.9-19.5l19-22.3l32,24.6l-67.9,42.6
	c-7.7-7.3-17.1-10-23.3-5.9c-7.9,5.1-7.7,19.1,0.4,31.1c8.1,12,21,17.6,28.9,12.5c4.4-2.9,6.3-8.5,5.6-15l77.5-48.9l24.7,18.9
	L156.1,277c-10.2-9.3-22.6-12.5-30.1-6.7c-9,6.8-7.5,23.6,3.3,37.5s26.8,19.6,35.8,12.8c7-5.3,7.6-16.8,2.4-28.2l64-42.3l9.7,7.4
	c2.1,1.6,3.5,3.9,4,6.5l1.2,6.1c0.8,3.8-0.5,7.7-3.4,10.3l-7.1,6.4c-4.5,4.1-4.8,11.1-0.6,15.6c0.7,0.8,1.5,1.4,2.4,2l39.3,26.9
	c3.5,2.1,5.9-1.2,3.3-4.3l-20.9-23c-0.6-0.7-0.5-1.7,0.2-2.3c0.4-0.4,1-0.5,1.6-0.3l35.9,12.9c6.4,2,7.5-1.2,3-6.2l-24.2-23
	c-0.7-0.7-0.8-1.8-0.1-2.6c0.4-0.5,1.1-0.7,1.7-0.6l49.7,9.1c7.2,1.3,8.5-1.4,3-6.2l-37.5-24c-1.2-1.1-1.4-3-0.3-4.2
	c0.4-0.4,0.8-0.7,1.4-0.9c0,0,11.4-11.6,25.8-11.7c1.6,0,3.2,0.4,4.5,1.2l19.5,10.6c3,1.4,6.8-1.2,4.4-3.5l-31.2-29.4
	c-3.2-4-9-4.7-13-1.5c-0.2,0.2-0.4,0.3-0.6,0.5l-22.6,21.6c-1,0.9-2.5,0.8-3.4-0.2c-0.4-0.5-0.6-1.1-0.6-1.7l6.2-103.7
	c10.1-5.9,15.2-16.4,11.5-25.1c-4.2-9.8-18-13.6-30.8-8.4c-12.8,5.2-19.9,17.4-15.7,27.2c2.2,5.1,6.9,8.5,12.8,10l-6.3,89.4
	l-37.1-24.2l16.2-121.3c10.5-2.4,18.1-9.9,17.9-18.6C250.9,56.1,239.4,47.6,225.4,47.8z M150,86.6c-2.3-4.8,0.9-11,7.1-13.8
	s13-1.1,15.3,3.7s-0.9,11-7.1,13.8S152.2,91.4,150,86.6z M107.5,210.7c-2.5,3.3-9,2.5-14.4-1.7s-7.9-10.2-5.4-13.5s9-2.5,14.4,1.7
	S110,207.4,107.5,210.7z M98.1,262.8c2.7,4.1,3.4,8.5,1.5,9.7s-5.6-1.2-8.4-5.3c-2.7-4.1-3.4-8.5-1.5-9.7
	C91.6,256.3,95.4,258.7,98.1,262.8L98.1,262.8z M150.7,293c2.2,3.5,2,7.7-0.5,9.3c-2.5,1.6-6.5,0-8.7-3.5c-2.2-3.5-2-7.7,0.5-9.3
	C144.5,287.9,148.4,289.5,150.7,293L150.7,293z M96,145.9c-5.4-2.8-7-10.7-3.5-17.8s10.8-10.5,16.2-7.8s7,10.7,3.5,17.8
	S101.5,148.7,96,145.9z M258.8,124.1c-1.1-4.4,3.1-9.2,9.4-10.6c6.3-1.4,12.2,1,13.3,5.4s-3.1,9.2-9.4,10.6
	C265.8,131,259.9,128.5,258.8,124.1z M236.8,66.7c-0.2,3.4-5,5.7-10.7,5.2s-10.1-3.6-9.9-7s5-5.7,10.7-5.2S237,63.3,236.8,66.7z"/>
</svg>
