<svg id="Layer_1" data-name="Layer 1" xmlns="http://www.w3.org/2000/svg" viewBox="0 0 622 355"><defs><style>.cls-1{fill:#016fae;}.cls-2{fill:#018b69;}.cls-3{fill:#f7f6f1;}.cls-4{fill:#fda510;}.cls-5{fill:none;stroke:#f7f6f1;stroke-linecap:square;stroke-miterlimit:10;stroke-width:12px;}</style></defs><path class="cls-1" d="M353.41,355h18.91A178,178,0,0,0,353.42,0h0Z" transform="translate(-46.41)"/><path class="cls-2" d="M353.41,0h-18.9a178,178,0,0,0,18.9,355h0Z" transform="translate(-46.41)"/><circle class="cls-3" cx="309" cy="178" r="105"/><path class="cls-4" d="M250.33,176.35s106.63-118.27,210.08,0C460.41,176.35,362.43,283.56,250.33,176.35Z" transform="translate(-46.41)"/><circle cx="309.37" cy="178.14" r="27.18"/><line class="cls-5" x1="159" y1="171" x2="6" y2="171"/><line class="cls-5" x1="159.28" y1="142.59" x2="34.72" y2="105.41"/><line class="cls-5" x1="159.28" y1="199.41" x2="34.72" y2="236.59"/><line class="cls-5" x1="463" y1="171" x2="616" y2="171"/><line class="cls-5" x1="462.72" y1="199.41" x2="587.28" y2="236.59"/><line class="cls-5" x1="462.72" y1="142.59" x2="587.28" y2="105.41"/></svg>