<?xml version="1.0" encoding="utf-8"?>
<!-- Generator: Adobe Illustrator 26.0.0, SVG Export Plug-In . SVG Version: 6.00 Build 0)  -->
<svg version="1.1" id="Layer_1" xmlns="http://www.w3.org/2000/svg" xmlns:xlink="http://www.w3.org/1999/xlink" x="0px" y="0px"
	 viewBox="0 0 387.3 784" style="enable-background:new 0 0 387.3 784;" xml:space="preserve">
<style type="text/css">
	.st0{fill:#020203;}
	.st1{fill:#F7A41D;}
	.st2{fill:none;stroke:#F7A41D;stroke-width:7;stroke-miterlimit:10;}
	.st3{fill:none;stroke:#FFFFFF;stroke-width:7;stroke-miterlimit:10;}
	.st4{fill:#EA5A1E;}
	.st5{fill:none;stroke:#FFFFFF;stroke-width:15;stroke-linecap:round;stroke-miterlimit:10;}
	.st6{fill:#FFFFFF;}
</style>
<ellipse class="st0" cx="194" cy="379.7" rx="129.8" ry="172.5"/>
<path class="st1" d="M86.8,334.1c0,0,40.2-44.2,79.3,0C166.1,334.1,129.1,374.2,86.8,334.1z"/>
<path class="st1" d="M220.8,334.1c0,0,40.2-44.2,79.3,0C300.1,334.1,263.1,374.2,220.8,334.1z"/>
<circle class="st0" cx="126.6" cy="333.9" r="9.5"/>
<circle class="st0" cx="260.6" cy="333.9" r="9.5"/>
<circle class="st2" cx="114.5" cy="439.5" r="28.5"/>
<ellipse class="st3" cx="317.4" cy="514.4" rx="10.5" ry="37.7"/>
<ellipse class="st3" cx="73.2" cy="519.5" rx="10.5" ry="37.7"/>
<circle class="st2" cx="270.4" cy="443.7" r="24.3"/>
<ellipse transform="matrix(0.2445 -0.9696 0.9696 0.2445 -318.161 740.7498)" class="st4" cx="316.3" cy="574.5" rx="13.3" ry="15"/>
<ellipse transform="matrix(0.92 -0.392 0.392 0.92 -220.0154 74.8104)" class="st4" cx="73.2" cy="576.2" rx="9" ry="11.2"/>
<ellipse transform="matrix(0.964 -0.266 0.266 0.964 -108.2887 87.9109)" class="st4" cx="270.4" cy="443.7" rx="13.8" ry="15.5"/>
<ellipse transform="matrix(0.5 -0.866 0.866 0.5 -323.4704 318.7309)" class="st4" cx="114.3" cy="439.5" rx="19.9" ry="17.6"/>
<line class="st5" x1="194" y1="321.8" x2="187.8" y2="500.2"/>
<line class="st5" x1="137" y1="363.3" x2="139.6" y2="380.8"/>
<line class="st5" x1="117.6" y1="364.3" x2="102.3" y2="394.6"/>
<line class="st5" x1="95.7" y1="355.5" x2="53.8" y2="387.7"/>
<line class="st5" x1="247" y1="364.9" x2="244.5" y2="382.4"/>
<line class="st5" x1="266.4" y1="365.9" x2="281.8" y2="396.2"/>
<line class="st5" x1="288.4" y1="357.1" x2="330.3" y2="389.3"/>
<path class="st5" d="M126.8,212.2c0,0,29.1,59.2,131.2,6.1"/>
<path class="st5" d="M173.8,199.4c0,0,43.4,115.1,140.9,100.9"/>
<path class="st5" d="M73.2,261.2c0,0,136.3,61.3,214.5-15.8"/>
<polygon class="st6" points="77.7,52.4 103,10.1 98.1,55.6 132.5,43 100.8,84 117.1,120 69,93 49,144 53.8,79 16,65 53.8,62 46,37 
	"/>
<polygon class="st6" points="306.1,88.1 306.1,121.1 251.3,141.1 298.4,141.1 298.4,167.1 312.8,148.1 340.6,179.1 325.7,142.1 
	367.3,138.1 324.5,121.1 352.2,88.1 319,109.1 "/>
<polygon class="st6" points="116,657 116,631 125.2,657 172.2,644 130.9,670 138,703 116,678 108.3,709 108.3,665 56.4,648 "/>
<polygon class="st6" points="294.7,709 309.3,674 309.3,718 350,709 316.3,737 327.9,768 300.1,737 281.8,768 288.4,733 256.5,716 
	281.8,716 274.1,688 "/>
</svg>
