<?xml version="1.0" encoding="utf-8"?>
<!-- Generator: Adobe Illustrator 26.0.0, SVG Export Plug-In . SVG Version: 6.00 Build 0)  -->
<svg version="1.1" id="Layer_1" xmlns="http://www.w3.org/2000/svg" xmlns:xlink="http://www.w3.org/1999/xlink" x="0px" y="0px"
	 viewBox="0 0 387.3 784" style="enable-background:new 0 0 387.3 784;" xml:space="preserve">
<style type="text/css">
	.st0{fill:#020203;}
	.st1{fill:#F7A41D;}
	.st2{fill:none;stroke:#FFFFFF;stroke-width:15;stroke-linecap:round;stroke-miterlimit:10;}
</style>
<ellipse class="st0" cx="194" cy="379.7" rx="129.8" ry="172.5"/>
<path class="st1" d="M86.8,334.1c0,0,40.2-44.2,79.3,0C166.1,334.1,129.1,374.2,86.8,334.1z"/>
<path class="st1" d="M220.8,334.1c0,0,40.2-44.2,79.3,0C300.1,334.1,263.1,374.2,220.8,334.1z"/>
<circle class="st0" cx="126.6" cy="333.9" r="9.5"/>
<circle class="st0" cx="260.6" cy="333.9" r="9.5"/>
<line class="st2" x1="194" y1="321.8" x2="187.8" y2="500.2"/>
<line class="st2" x1="137" y1="363.3" x2="139.6" y2="380.8"/>
<line class="st2" x1="117.6" y1="364.3" x2="102.3" y2="394.6"/>
<line class="st2" x1="95.7" y1="355.5" x2="53.8" y2="387.7"/>
<line class="st2" x1="247" y1="364.9" x2="244.5" y2="382.4"/>
<line class="st2" x1="266.4" y1="365.9" x2="281.8" y2="396.2"/>
<line class="st2" x1="288.4" y1="357.1" x2="330.3" y2="389.3"/>
</svg>
