<?xml version="1.0" encoding="utf-8"?>
<!-- Generator: Adobe Illustrator 26.0.0, SVG Export Plug-In . SVG Version: 6.00 Build 0)  -->
<svg version="1.1" id="Layer_1" xmlns="http://www.w3.org/2000/svg" xmlns:xlink="http://www.w3.org/1999/xlink" x="0px" y="0px"
	 viewBox="0 0 141.1 131.8" style="enable-background:new 0 0 141.1 131.8;" xml:space="preserve">
<style type="text/css">
	.st0{fill:#F7A41D;}
	.st1{fill:#010101;}
</style>
<path class="st0" d="M35.9,38.1c0,0-5.3-25.5,13-25.5s14.9,17.3,14.9,17.3S78.9,2.6,92.7,12.5s8.5,23.2,8.5,23.2s32.5-18.6,29,36.6
	c-3.5,55.2-29.5,25.8-29.5,25.8s-4.2,24.6-22.4,23.2s-18.9-20.3-18.9-20.3S47,129.4,28.4,112.4s-0.8-40.7-0.8-40.7S8.4,76.1,10.8,45
	S35.9,38.1,35.9,38.1z"/>
<ellipse class="st1" cx="70.5" cy="65.9" rx="28.8" ry="12.3"/>
</svg>
