<?xml version="1.0" encoding="utf-8"?>
<!-- Generator: Adobe Illustrator 26.0.0, SVG Export Plug-In . SVG Version: 6.00 Build 0)  -->
<svg version="1.1" id="Layer_1" xmlns="http://www.w3.org/2000/svg" xmlns:xlink="http://www.w3.org/1999/xlink" x="0px" y="0px"
	 viewBox="0 0 141.1 131.8" style="enable-background:new 0 0 141.1 131.8;" xml:space="preserve">
<style type="text/css">
	.st0{fill:#FFFFFF;}
	.st1{fill:#0470AF;}
</style>
<path class="st0" d="M41.4,55.3c0,0-16.2-26-6.2-33.1s24.5,16.5,24.5,16.5s5.1-28.3,16.4-24.9s7.9,25.2,7.9,25.2
	s29.6-29.1,39.7-13.7s-19.6,35.4-19.6,35.4s31.7,10.9,23.7,32.6c-8.1,21.8-36.5,2.6-36.5,2.6s6.4,22.6-8.1,22.2
	c-14.5-0.4-17.9-14.5-17.9-14.5s-16.9,16.4-29,7s-0.6-28.4-0.6-28.4S11.1,81.9,12,60.8C12.8,39.7,41.4,55.3,41.4,55.3z"/>
<ellipse class="st1" cx="70.5" cy="65.9" rx="7" ry="5.3"/>
</svg>
