<?xml version="1.0" encoding="utf-8"?>
<!-- Generator: Adobe Illustrator 26.0.0, SVG Export Plug-In . SVG Version: 6.00 Build 0)  -->
<svg version="1.1" id="Layer_1" xmlns="http://www.w3.org/2000/svg" xmlns:xlink="http://www.w3.org/1999/xlink" x="0px" y="0px"
	 viewBox="0 0 141.1 131.8" style="enable-background:new 0 0 141.1 131.8;" xml:space="preserve">
<style type="text/css">
	.st0{fill:#FFFFFF;}
	.st1{fill:#0470AF;}
</style>
<path class="st0" d="M40.3,56.2c0,0-6.1-33.6,6.6-32.5s16.5,31.4,16.5,31.4S76.8,10.2,87.8,17s5.6,29.7,5.6,29.7s35.2-23.5,38.6-5.1
	S90.6,96.5,90.6,96.5s17.7,15.5,5.9,28.8s-20.8-10.4-20.8-10.4s-2,17.7-15.4,12.4s-9.9-18.1-9.9-18.1s-21.2,20.5-32.3-0.4
	c-7-13.1,2.3-23.2,2.3-23.2s-15.6-17-6.2-30.1S40.3,56.2,40.3,56.2z"/>
<ellipse class="st1" cx="71.7" cy="72.8" rx="13.1" ry="8.5"/>
</svg>
