<?xml version="1.0" encoding="utf-8"?>
<!-- Generator: Adobe Illustrator 26.0.0, SVG Export Plug-In . SVG Version: 6.00 Build 0)  -->
<svg version="1.1" id="Layer_1" xmlns="http://www.w3.org/2000/svg" xmlns:xlink="http://www.w3.org/1999/xlink" x="0px" y="0px"
	 viewBox="0 0 141.1 131.8" style="enable-background:new 0 0 141.1 131.8;" xml:space="preserve">
<style type="text/css">
	.st0{fill:#F7A41D;}
	.st1{fill:#010101;}
</style>
<path class="st0" d="M22.2,63.7c0,0-16.6-11.5-9.2-28.6s36.3-7.4,36.3-7.4s5.4-11.5,15.8-11S80.9,22.3,85,32c0,0,25.3-22.7,42.1-3.6
	s-5.9,39.8-9.7,43.9c0,0,20.7,38.3-10.9,49.1c-28.1,9.6-34.6-9.7-36.1-14.1c0,0-34.5,20.4-54.6-11C5.6,73.9,22.2,63.7,22.2,63.7z"/>
<ellipse class="st1" cx="72.9" cy="70.2" rx="31.8" ry="14.7"/>
</svg>
