<?xml version="1.0" encoding="utf-8"?>
<!-- Generator: Adobe Illustrator 26.0.0, SVG Export Plug-In . SVG Version: 6.00 Build 0)  -->
<svg version="1.1" id="Layer_1" xmlns="http://www.w3.org/2000/svg" xmlns:xlink="http://www.w3.org/1999/xlink" x="0px" y="0px"
	 viewBox="0 0 951.1 131.8" style="enable-background:new 0 0 951.1 131.8;" xml:space="preserve">
<style type="text/css">
	.st0{fill:#F7A41D;}
	.st1{fill:#EA5A1E;}
	.st2{fill:#FFFFFF;}
	.st3{fill:#0470AF;}
	.st4{fill:#010101;}
</style>
<path class="st0" d="M22.2,63.7c0,0-16.6-11.5-9.2-28.6s36.3-7.4,36.3-7.4s5.4-11.5,15.8-11S80.9,22.3,85,32c0,0,25.3-22.7,42.1-3.6
	s-5.9,39.8-9.7,43.9c0,0,20.7,38.3-10.9,49.1c-28.1,9.6-34.6-9.7-36.1-14.1c0,0-34.5,20.4-54.6-11C5.6,73.9,22.2,63.7,22.2,63.7z"/>
<path class="st1" d="M157.4,26.3c0,0-38.4,100.8,48.2,98.9c65.9-1.4,45.2-98.9,45.2-98.9l-27.6,36l-13-44.4l-27.6,39.8L157.4,26.3z"
	/>
<path class="st2" d="M304.9,52.4c0,0-19.4-31.1-7.4-39.6s29.4,19.8,29.4,19.8S333-1.2,346.5,2.9s9.5,30.1,9.5,30.1
	s35.5-34.8,47.5-16.4S380,59.1,380,59.1s38,13,28.3,39.1s-43.7,3.1-43.7,3.1s7.7,27.1-9.7,26.6c-17.4-0.5-21.5-17.4-21.5-17.4
	s-20.2,19.7-34.7,8.4s-0.8-34-0.8-34s-29.4-0.5-28.3-25.8S304.9,52.4,304.9,52.4z"/>
<path class="st0" d="M468.8,39.3c0,0-7.5-28.3,18.5-28.3c26,0,21.2,19.1,21.2,19.1S529.9,0,549.6,11s12.1,25.8,12.1,25.8
	s46.3-20.7,41.3,40.6s-42,28.6-42,28.6s-5.9,27.3-31.9,25.8c-26-1.5-26.9-22.5-26.9-22.5s-17.6,31.4-44,12.5s-1.1-45.2-1.1-45.2
	s-27.4,4.8-24-29.6S468.8,39.3,468.8,39.3z"/>
<path class="st1" d="M626.4,23.4c0,0-22.6,102.6,49.3,107c70.7,4.4,59.5-113.9,59.5-113.9l-39.1,40.9l-14.3-37.8L656,58.9
	L626.4,23.4z"/>
<path class="st2" d="M799.5,46c0,0-9.4-38.8,10.2-37.5s25.6,36.3,25.6,36.3S856-7.1,873.1,0.8s8.7,34.2,8.7,34.2s54.4-27.1,59.7-5.9
	s-64.1,63.3-64.1,63.3s27.3,17.9,9.2,33.2s-32.2-12-32.2-12s-3.1,20.4-23.8,14.3c-20.7-6.1-15.3-20.9-15.3-20.9s-32.8,23.6-50-0.5
	c-10.8-15.1,3.6-26.8,3.6-26.8s-24.3-19.4-9.7-34.5S799.5,46,799.5,46z"/>
<ellipse class="st3" cx="337.9" cy="71.6" rx="8.4" ry="6.4"/>
<ellipse class="st3" cx="836.4" cy="75" rx="20.3" ry="9.8"/>
<ellipse class="st4" cx="520.9" cy="73.2" rx="41" ry="13.7"/>
<ellipse class="st4" cx="72.9" cy="70.2" rx="31.8" ry="14.7"/>
</svg>
