<svg id="Layer_1" data-name="Layer 1" xmlns="http://www.w3.org/2000/svg" viewBox="0 0 288.86 1965.04"><defs><style>.cls-1{fill:#f2f9f1;}</style></defs><path d="M288.73.31H-.13s0,221.82,144.43,221.82S288.73.31,288.73.31Z" transform="translate(0.13 -0.31)"/><path class="cls-1" d="M142.79,37.88s81.69,74.34,0,146.48C142.79,184.36,68.74,116,142.79,37.88Z" transform="translate(0.13 -0.31)"/><circle cx="144.72" cy="87.46" r="18.75"/><path d="M288.73,249.34H-.13s0,221.82,144.43,221.82S288.73,249.34,288.73,249.34Z" transform="translate(0.13 -0.31)"/><path class="cls-1" d="M142.79,286.91s81.69,74.35,0,146.48C142.79,433.39,68.74,365.07,142.79,286.91Z" transform="translate(0.13 -0.31)"/><circle cx="144.72" cy="342.49" r="18.75"/><path d="M288.73,498.38H-.13s0,221.81,144.43,221.81S288.73,498.38,288.73,498.38Z" transform="translate(0.13 -0.31)"/><path class="cls-1" d="M142.79,535.94s81.69,74.35,0,146.48C142.79,682.42,68.74,614.1,142.79,535.94Z" transform="translate(0.13 -0.31)"/><circle cx="144.72" cy="597.53" r="18.75"/><path d="M288.73,747.41H-.13s0,221.82,144.43,221.82S288.73,747.41,288.73,747.41Z" transform="translate(0.13 -0.31)"/><path class="cls-1" d="M142.79,785s81.69,74.35,0,146.48C142.79,931.45,68.74,863.13,142.79,785Z" transform="translate(0.13 -0.31)"/><circle cx="144.72" cy="852.56" r="18.75"/><path d="M288.73,996.44H-.13s0,221.82,144.43,221.82S288.73,996.44,288.73,996.44Z" transform="translate(0.13 -0.31)"/><path class="cls-1" d="M142.79,1034s81.69,74.34,0,146.48C142.79,1180.49,68.74,1112.17,142.79,1034Z" transform="translate(0.13 -0.31)"/><circle cx="144.72" cy="1107.59" r="18.75"/><path d="M288.73,1245.48H-.13s0,221.81,144.43,221.81S288.73,1245.48,288.73,1245.48Z" transform="translate(0.13 -0.31)"/><path class="cls-1" d="M142.79,1283s81.69,74.35,0,146.48C142.79,1429.52,68.74,1361.2,142.79,1283Z" transform="translate(0.13 -0.31)"/><circle cx="144.72" cy="1350.62" r="18.75"/><path d="M288.73,1494.51H-.13s0,221.81,144.43,221.81S288.73,1494.51,288.73,1494.51Z" transform="translate(0.13 -0.31)"/><path class="cls-1" d="M142.79,1532.07s81.69,74.35,0,146.48C142.79,1678.55,68.74,1610.23,142.79,1532.07Z" transform="translate(0.13 -0.31)"/><circle cx="144.72" cy="1593.66" r="18.75"/><path d="M288.73,1743.54H-.13s0,221.82,144.43,221.82S288.73,1743.54,288.73,1743.54Z" transform="translate(0.13 -0.31)"/><path class="cls-1" d="M142.79,1781.11s81.69,74.34,0,146.48C142.79,1927.59,68.74,1859.27,142.79,1781.11Z" transform="translate(0.13 -0.31)"/><circle cx="144.72" cy="1838.19" r="18.75"/></svg>