<svg id="Layer_1" data-name="Layer 1" xmlns="http://www.w3.org/2000/svg" viewBox="0 0 288.86 1965.04"><defs><style>.cls-1{fill:#018b69;}</style></defs><path d="M.35,260.13H289.21s0-221.81-144.43-221.81S.35,260.13.35,260.13Z" transform="translate(-0.35 -38.32)"/><path class="cls-1" d="M201,174.06s-56.73,62.33-111.77,0C89.25,174.06,141.38,117.56,201,174.06Z" transform="translate(-0.35 -38.32)"/><path class="cls-1" d="M201,103.55s-56.73,62.33-111.77,0C89.25,103.55,141.38,47.05,201,103.55Z" transform="translate(-0.35 -38.32)"/><circle cx="144.41" cy="75.85" r="12"/><circle cx="144.41" cy="126.86" r="12"/><path d="M.35,509.16H289.21s0-221.81-144.43-221.81S.35,509.16.35,509.16Z" transform="translate(-0.35 -38.32)"/><path class="cls-1" d="M201,423.09s-56.73,62.33-111.77,0C89.25,423.09,141.38,366.59,201,423.09Z" transform="translate(-0.35 -38.32)"/><path class="cls-1" d="M201,352.58s-56.73,62.33-111.77,0C89.25,352.58,141.38,296.08,201,352.58Z" transform="translate(-0.35 -38.32)"/><circle cx="150.41" cy="321.88" r="12"/><circle cx="138.41" cy="375.89" r="12"/><path d="M.35,758.2H289.21s0-221.82-144.43-221.82S.35,758.2.35,758.2Z" transform="translate(-0.35 -38.32)"/><path class="cls-1" d="M201,672.12s-56.73,62.33-111.77,0C89.25,672.12,141.38,615.63,201,672.12Z" transform="translate(-0.35 -38.32)"/><path class="cls-1" d="M201,601.61s-56.73,62.33-111.77,0C89.25,601.61,141.38,545.12,201,601.61Z" transform="translate(-0.35 -38.32)"/><circle cx="156.41" cy="570.91" r="12"/><circle cx="132.41" cy="626.42" r="12"/><path d="M.35,1007.23H289.21s0-221.82-144.43-221.82S.35,1007.23.35,1007.23Z" transform="translate(-0.35 -38.32)"/><path class="cls-1" d="M201,921.16s-56.73,62.32-111.77,0C89.25,921.16,141.38,864.66,201,921.16Z" transform="translate(-0.35 -38.32)"/><path class="cls-1" d="M201,850.65s-56.73,62.32-111.77,0C89.25,850.65,141.38,794.15,201,850.65Z" transform="translate(-0.35 -38.32)"/><circle cx="168.41" cy="816.95" r="12"/><circle cx="124.91" cy="876.95" r="12"/><path d="M.35,1256.26H289.21s0-221.81-144.43-221.81S.35,1256.26.35,1256.26Z" transform="translate(-0.35 -38.32)"/><path class="cls-1" d="M201,1170.19s-56.73,62.33-111.77,0C89.25,1170.19,141.38,1113.69,201,1170.19Z" transform="translate(-0.35 -38.32)"/><path class="cls-1" d="M201,1099.68s-56.73,62.33-111.77,0C89.25,1099.68,141.38,1043.18,201,1099.68Z" transform="translate(-0.35 -38.32)"/><circle cx="175.91" cy="1062.98" r="12"/><circle cx="114.41" cy="1130.49" r="12"/><path d="M.35,1505.29H289.21s0-221.81-144.43-221.81S.35,1505.29.35,1505.29Z" transform="translate(-0.35 -38.32)"/><path class="cls-1" d="M201,1419.22s-56.73,62.33-111.77,0C89.25,1419.22,141.38,1362.72,201,1419.22Z" transform="translate(-0.35 -38.32)"/><path class="cls-1" d="M201,1348.71s-56.73,62.33-111.77,0C89.25,1348.71,141.38,1292.22,201,1348.71Z" transform="translate(-0.35 -38.32)"/><circle cx="166.91" cy="1316.51" r="12"/><circle cx="121.91" cy="1375.02" r="12"/><path d="M.35,1754.33H289.21s0-221.82-144.43-221.82S.35,1754.33.35,1754.33Z" transform="translate(-0.35 -38.32)"/><path class="cls-1" d="M201,1668.26s-56.73,62.32-111.77,0C89.25,1668.26,141.38,1611.76,201,1668.26Z" transform="translate(-0.35 -38.32)"/><path class="cls-1" d="M201,1597.75s-56.73,62.32-111.77,0C89.25,1597.75,141.38,1541.25,201,1597.75Z" transform="translate(-0.35 -38.32)"/><circle cx="162.41" cy="1568.55" r="12"/><circle cx="132.41" cy="1621.05" r="12"/><path d="M.35,2003.36H289.21s0-221.82-144.43-221.82S.35,2003.36.35,2003.36Z" transform="translate(-0.35 -38.32)"/><path class="cls-1" d="M201,1917.29s-56.73,62.32-111.77,0C89.25,1917.29,141.38,1860.79,201,1917.29Z" transform="translate(-0.35 -38.32)"/><path class="cls-1" d="M201,1846.78s-56.73,62.33-111.77,0C89.25,1846.78,141.38,1790.28,201,1846.78Z" transform="translate(-0.35 -38.32)"/><circle cx="151.91" cy="1819.08" r="12"/><circle cx="138.41" cy="1870.09" r="12"/></svg>