<svg id="Layer_1" data-name="Layer 1" xmlns="http://www.w3.org/2000/svg" viewBox="0 0 288.86 1965.04"><defs><style>.cls-1{fill:#fda510;}</style></defs><path d="M.07,248.77H288.93S288.93,27,144.5,27,.07,248.77.07,248.77Z" transform="translate(-0.07 -26.96)"/><path class="cls-1" d="M68.27,108s30.19-15.48,59.48,0C127.75,108,100,122,68.27,108Z" transform="translate(-0.07 -26.96)"/><path class="cls-1" d="M162,108s30.19-15.48,59.48,0C221.51,108,193.77,122,162,108Z" transform="translate(-0.07 -26.96)"/><path class="cls-1" d="M54.77,148.08s30.19-33.18,59.48,0C114.25,148.08,86.51,178.14,54.77,148.08Z" transform="translate(-0.07 -26.96)"/><path class="cls-1" d="M175.53,148.08s30.19-33.18,59.49,0C235,148.08,207.27,178.14,175.53,148.08Z" transform="translate(-0.07 -26.96)"/><path class="cls-1" d="M67.52,187.28s30.19-6.63,59.48,0A166.34,166.34,0,0,1,67.52,187.28Z" transform="translate(-0.07 -26.96)"/><path class="cls-1" d="M161.28,187.28s30.19-6.63,59.48,0A166.34,166.34,0,0,1,161.28,187.28Z" transform="translate(-0.07 -26.96)"/><circle cx="97.3" cy="159.93" r="7.13"/><circle cx="84.55" cy="120.18" r="7.13"/><circle cx="98.05" cy="81.17" r="7.13"/><circle cx="191.07" cy="81.17" r="7.13"/><circle cx="206.07" cy="120.18" r="7.13"/><circle cx="191.82" cy="159.93" r="7.13"/><path d="M.07,497.8H288.93S288.93,276,144.5,276,.07,497.8.07,497.8Z" transform="translate(-0.07 -26.96)"/><path class="cls-1" d="M68.27,357.13s30.19-22.56,59.48,0C127.75,357.13,100,377.59,68.27,357.13Z" transform="translate(-0.07 -26.96)"/><path class="cls-1" d="M162,357.13s30.19-22.56,59.48,0C221.51,357.13,193.77,377.59,162,357.13Z" transform="translate(-0.07 -26.96)"/><path class="cls-1" d="M54.77,396.89s30.19-22.57,59.48,0C114.25,396.89,86.51,417.34,54.77,396.89Z" transform="translate(-0.07 -26.96)"/><path class="cls-1" d="M175.53,396.89s30.19-22.57,59.49,0C235,396.89,207.27,417.34,175.53,396.89Z" transform="translate(-0.07 -26.96)"/><circle cx="97.3" cy="408.97" r="7.13"/><circle cx="84.55" cy="369.21" r="7.13"/><circle cx="98.05" cy="330.2" r="7.13"/><circle cx="191.07" cy="330.2" r="7.13"/><circle cx="206.07" cy="369.21" r="7.13"/><circle cx="191.82" cy="408.97" r="7.13"/><path d="M.07,746.84H288.93S288.93,525,144.5,525,.07,746.84.07,746.84Z" transform="translate(-0.07 -26.96)"/><path class="cls-1" d="M68.27,606.39s30.19-33.18,59.48,0C127.75,606.39,100,636.45,68.27,606.39Z" transform="translate(-0.07 -26.96)"/><path class="cls-1" d="M162,606.39s30.19-33.18,59.48,0C221.51,606.39,193.77,636.45,162,606.39Z" transform="translate(-0.07 -26.96)"/><path class="cls-1" d="M54.77,645.81s30.19-17.25,59.48,0C114.25,645.81,86.51,661.45,54.77,645.81Z" transform="translate(-0.07 -26.96)"/><path class="cls-1" d="M175.53,645.81s30.19-17.25,59.49,0C235,645.81,207.27,661.45,175.53,645.81Z" transform="translate(-0.07 -26.96)"/><path class="cls-1" d="M67.52,685.34s30.19-6.63,59.48,0A166.07,166.07,0,0,1,67.52,685.34Z" transform="translate(-0.07 -26.96)"/><path class="cls-1" d="M161.28,685.34s30.19-6.63,59.48,0A166.07,166.07,0,0,1,161.28,685.34Z" transform="translate(-0.07 -26.96)"/><circle cx="97.3" cy="658" r="7.13"/><circle cx="84.55" cy="618.24" r="7.13"/><circle cx="98.05" cy="579.24" r="7.13"/><circle cx="191.07" cy="579.24" r="7.13"/><circle cx="206.07" cy="618.24" r="7.13"/><circle cx="191.82" cy="658" r="7.13"/><path d="M.07,995.87H288.93s0-221.82-144.43-221.82S.07,995.87.07,995.87Z" transform="translate(-0.07 -26.96)"/><path class="cls-1" d="M68.27,855.23s30.19-24.33,59.48,0C127.75,855.23,100,877.3,68.27,855.23Z" transform="translate(-0.07 -26.96)"/><path class="cls-1" d="M162,855.23s30.19-24.33,59.48,0C221.51,855.23,193.77,877.3,162,855.23Z" transform="translate(-0.07 -26.96)"/><path class="cls-1" d="M54.77,894.66s30.19-8.4,59.48,0A131.94,131.94,0,0,1,54.77,894.66Z" transform="translate(-0.07 -26.96)"/><path class="cls-1" d="M175.53,894.66s30.19-8.4,59.49,0A132,132,0,0,1,175.53,894.66Z" transform="translate(-0.07 -26.96)"/><path class="cls-1" d="M67.52,934.6s30.19-17.26,59.48,0C127,934.6,99.26,950.24,67.52,934.6Z" transform="translate(-0.07 -26.96)"/><path class="cls-1" d="M161.28,934.6s30.19-17.26,59.48,0C220.76,934.6,193,950.24,161.28,934.6Z" transform="translate(-0.07 -26.96)"/><circle cx="97.3" cy="907.03" r="7.13"/><circle cx="84.55" cy="867.28" r="7.13"/><circle cx="98.05" cy="828.27" r="7.13"/><circle cx="191.07" cy="828.27" r="7.13"/><circle cx="206.07" cy="867.28" r="7.13"/><circle cx="191.82" cy="907.03" r="7.13"/><path d="M.07,1244.9H288.93s0-221.81-144.43-221.81S.07,1244.9.07,1244.9Z" transform="translate(-0.07 -26.96)"/><path class="cls-1" d="M68.27,1104.08s30.19-15.48,59.48,0C127.75,1104.08,100,1118.12,68.27,1104.08Z" transform="translate(-0.07 -26.96)"/><path class="cls-1" d="M162,1104.08s30.19-15.48,59.48,0C221.51,1104.08,193.77,1118.12,162,1104.08Z" transform="translate(-0.07 -26.96)"/><path class="cls-1" d="M67.52,1183.74s30.19-22.56,59.48,0C127,1183.74,99.26,1204.2,67.52,1183.74Z" transform="translate(-0.07 -26.96)"/><path class="cls-1" d="M161.28,1183.74s30.19-22.56,59.48,0C220.76,1183.74,193,1204.2,161.28,1183.74Z" transform="translate(-0.07 -26.96)"/><circle cx="97.3" cy="1156.06" r="7.13"/><circle cx="84.55" cy="1116.31" r="7.13"/><circle cx="98.05" cy="1077.3" r="7.13"/><circle cx="191.07" cy="1077.3" r="7.13"/><circle cx="206.07" cy="1116.31" r="7.13"/><circle cx="191.82" cy="1156.06" r="7.13"/><path d="M.07,1493.93H288.93s0-221.81-144.43-221.81S.07,1493.93.07,1493.93Z" transform="translate(-0.07 -26.96)"/><path class="cls-1" d="M68.27,1353s30.19-8.4,59.48,0A131.94,131.94,0,0,1,68.27,1353Z" transform="translate(-0.07 -26.96)"/><path class="cls-1" d="M162,1353s30.19-8.4,59.48,0A131.94,131.94,0,0,1,162,1353Z" transform="translate(-0.07 -26.96)"/><path class="cls-1" d="M54.77,1392.69s30.19-6.63,59.48,0A166.34,166.34,0,0,1,54.77,1392.69Z" transform="translate(-0.07 -26.96)"/><path class="cls-1" d="M175.53,1392.69s30.19-6.63,59.49,0A166.41,166.41,0,0,1,175.53,1392.69Z" transform="translate(-0.07 -26.96)"/><path class="cls-1" d="M67.52,1433s30.19-33.17,59.48,0C127,1433,99.26,1463.06,67.52,1433Z" transform="translate(-0.07 -26.96)"/><path class="cls-1" d="M161.28,1433s30.19-33.17,59.48,0C220.76,1433,193,1463.06,161.28,1433Z" transform="translate(-0.07 -26.96)"/><circle cx="97.3" cy="1405.1" r="7.13"/><circle cx="84.55" cy="1365.34" r="7.13"/><circle cx="98.05" cy="1326.34" r="7.13"/><circle cx="191.07" cy="1326.34" r="7.13"/><circle cx="206.07" cy="1365.34" r="7.13"/><circle cx="191.82" cy="1405.1" r="7.13"/><path d="M.07,1743H288.93s0-221.82-144.43-221.82S.07,1743,.07,1743Z" transform="translate(-0.07 -26.96)"/><path class="cls-1" d="M54.77,1641.83s30.19-11.94,59.48,0C114.25,1641.83,86.51,1652.66,54.77,1641.83Z" transform="translate(-0.07 -26.96)"/><path class="cls-1" d="M175.53,1641.83s30.19-11.94,59.49,0C235,1641.83,207.27,1652.66,175.53,1641.83Z" transform="translate(-0.07 -26.96)"/><path class="cls-1" d="M67.52,1681.84s30.19-24.33,59.48,0C127,1681.84,99.26,1703.9,67.52,1681.84Z" transform="translate(-0.07 -26.96)"/><path class="cls-1" d="M161.28,1681.84s30.19-24.33,59.48,0C220.76,1681.84,193,1703.9,161.28,1681.84Z" transform="translate(-0.07 -26.96)"/><circle cx="97.3" cy="1654.13" r="7.13"/><circle cx="84.55" cy="1614.37" r="7.13"/><circle cx="98.05" cy="1575.37" r="7.13"/><circle cx="191.07" cy="1575.37" r="7.13"/><circle cx="206.07" cy="1614.37" r="7.13"/><circle cx="191.82" cy="1654.13" r="7.13"/><path d="M.07,1992H288.93s0-221.82-144.43-221.82S.07,1992,.07,1992Z" transform="translate(-0.07 -26.96)"/><path class="cls-1" d="M68.27,1851s30.19-8.4,59.48,0A131.94,131.94,0,0,1,68.27,1851Z" transform="translate(-0.07 -26.96)"/><path class="cls-1" d="M162,1851s30.19-8.4,59.48,0A131.94,131.94,0,0,1,162,1851Z" transform="translate(-0.07 -26.96)"/><path class="cls-1" d="M54.77,1891s30.19-17.25,59.48,0C114.25,1891,86.51,1906.61,54.77,1891Z" transform="translate(-0.07 -26.96)"/><path class="cls-1" d="M175.53,1891s30.19-17.25,59.49,0C235,1891,207.27,1906.61,175.53,1891Z" transform="translate(-0.07 -26.96)"/><path class="cls-1" d="M67.52,1930.73s30.19-17.26,59.48,0C127,1930.73,99.26,1946.37,67.52,1930.73Z" transform="translate(-0.07 -26.96)"/><path class="cls-1" d="M161.28,1930.73s30.19-17.26,59.48,0C220.76,1930.73,193,1946.37,161.28,1930.73Z" transform="translate(-0.07 -26.96)"/><circle cx="97.3" cy="1903.16" r="7.13"/><circle cx="84.55" cy="1863.41" r="7.13"/><circle cx="98.05" cy="1824.4" r="7.13"/><circle cx="191.07" cy="1824.4" r="7.13"/><circle cx="206.07" cy="1863.41" r="7.13"/><circle cx="191.82" cy="1903.16" r="7.13"/></svg>