<svg id="Layer_1" data-name="Layer 1" xmlns="http://www.w3.org/2000/svg" viewBox="0 0 288.86 1965.04"><defs><style>.cls-1{fill:#ef591a;}</style></defs><path d="M288.93,0H.07s0,221.82,144.43,221.82S288.93,0,288.93,0Z" transform="translate(-0.07)"/><path class="cls-1" d="M31.51,67.92s47.54-52.23,93.66,0C125.17,67.92,81.49,115.26,31.51,67.92Z" transform="translate(-0.07)"/><path class="cls-1" d="M164.28,67.92s47.54-52.23,93.66,0C257.94,67.92,214.26,115.26,164.28,67.92Z" transform="translate(-0.07)"/><circle cx="78.02" cy="68.71" r="12"/><circle cx="210.78" cy="66.46" r="12"/><path class="cls-1" d="M180,216.69,145,71.26l-36.3,144.9a121.39,121.39,0,0,0,36.51,5.35A122.17,122.17,0,0,0,180,216.69Z" transform="translate(-0.07)"/><path d="M288.93,249H.07s0,221.82,144.43,221.82S288.93,249,288.93,249Z" transform="translate(-0.07)"/><path class="cls-1" d="M31.51,317s47.54-52.23,93.66,0C125.17,317,81.49,364.29,31.51,317Z" transform="translate(-0.07)"/><path class="cls-1" d="M164.28,317s47.54-52.23,93.66,0C257.94,317,214.26,364.29,164.28,317Z" transform="translate(-0.07)"/><circle cx="78.02" cy="323.74" r="12"/><circle cx="210.78" cy="321.49" r="12"/><path class="cls-1" d="M180,465.72,145,320.29l-36.3,144.9a121.39,121.39,0,0,0,36.51,5.35A122.17,122.17,0,0,0,180,465.72Z" transform="translate(-0.07)"/><path d="M288.93,498.07H.07s0,221.81,144.43,221.81S288.93,498.07,288.93,498.07Z" transform="translate(-0.07)"/><path class="cls-1" d="M31.51,566s47.54-52.23,93.66,0C125.17,566,81.49,613.33,31.51,566Z" transform="translate(-0.07)"/><path class="cls-1" d="M164.28,566s47.54-52.23,93.66,0C257.94,566,214.26,613.33,164.28,566Z" transform="translate(-0.07)"/><circle cx="78.02" cy="580.27" r="12"/><circle cx="210.78" cy="578.02" r="12"/><path class="cls-1" d="M180,714.75,145,569.32l-36.3,144.9a121.38,121.38,0,0,0,36.51,5.36A121.81,121.81,0,0,0,180,714.75Z" transform="translate(-0.07)"/><path d="M288.93,747.1H.07s0,221.81,144.43,221.81S288.93,747.1,288.93,747.1Z" transform="translate(-0.07)"/><path class="cls-1" d="M31.51,815s47.54-52.23,93.66,0C125.17,815,81.49,862.36,31.51,815Z" transform="translate(-0.07)"/><path class="cls-1" d="M164.28,815s47.54-52.23,93.66,0C257.94,815,214.26,862.36,164.28,815Z" transform="translate(-0.07)"/><circle cx="78.02" cy="835.31" r="12"/><circle cx="210.78" cy="833.06" r="12"/><path class="cls-1" d="M180,963.79,145,818.36l-36.3,144.9a121.39,121.39,0,0,0,36.51,5.35A122.17,122.17,0,0,0,180,963.79Z" transform="translate(-0.07)"/><path d="M288.93,996.13H.07S.07,1218,144.5,1218,288.93,996.13,288.93,996.13Z" transform="translate(-0.07)"/><path class="cls-1" d="M31.51,1064.05s47.54-52.23,93.66,0C125.17,1064.05,81.49,1111.39,31.51,1064.05Z" transform="translate(-0.07)"/><path class="cls-1" d="M164.28,1064.05s47.54-52.23,93.66,0C257.94,1064.05,214.26,1111.39,164.28,1064.05Z" transform="translate(-0.07)"/><circle cx="78.02" cy="1093.34" r="12"/><circle cx="210.78" cy="1091.09" r="12"/><circle cx="78.21" cy="1034.9" r="12"/><circle cx="210.97" cy="1032.65" r="12"/><path class="cls-1" d="M180,1212.82l-35-145.43-36.3,144.9a121.39,121.39,0,0,0,36.51,5.35A122.17,122.17,0,0,0,180,1212.82Z" transform="translate(-0.07)"/><path d="M288.93,1245.16H.07S.07,1467,144.5,1467,288.93,1245.16,288.93,1245.16Z" transform="translate(-0.07)"/><path class="cls-1" d="M31.51,1313.08s47.54-52.23,93.66,0C125.17,1313.08,81.49,1360.43,31.51,1313.08Z" transform="translate(-0.07)"/><path class="cls-1" d="M164.28,1313.08s47.54-52.23,93.66,0C257.94,1313.08,214.26,1360.43,164.28,1313.08Z" transform="translate(-0.07)"/><circle cx="78.02" cy="1288.37" r="12"/><circle cx="210.78" cy="1286.12" r="12"/><path class="cls-1" d="M180,1461.85l-35-145.43-36.3,144.9a121.38,121.38,0,0,0,36.51,5.36A122.17,122.17,0,0,0,180,1461.85Z" transform="translate(-0.07)"/><path d="M288.93,1494.2H.07S.07,1716,144.5,1716,288.93,1494.2,288.93,1494.2Z" transform="translate(-0.07)"/><path class="cls-1" d="M31.51,1562.11s47.54-52.23,93.66,0C125.17,1562.11,81.49,1609.46,31.51,1562.11Z" transform="translate(-0.07)"/><path class="cls-1" d="M164.28,1562.11s47.54-52.23,93.66,0C257.94,1562.11,214.26,1609.46,164.28,1562.11Z" transform="translate(-0.07)"/><circle cx="78.02" cy="1541.9" r="12"/><circle cx="210.78" cy="1539.65" r="12"/><path class="cls-1" d="M180,1710.88l-35-145.42-36.3,144.89a121.38,121.38,0,0,0,36.51,5.36A121.81,121.81,0,0,0,180,1710.88Z" transform="translate(-0.07)"/><path d="M288.93,1743.23H.07S.07,1965,144.5,1965,288.93,1743.23,288.93,1743.23Z" transform="translate(-0.07)"/><path class="cls-1" d="M31.51,1811.15s47.54-52.23,93.66,0C125.17,1811.15,81.49,1858.49,31.51,1811.15Z" transform="translate(-0.07)"/><path class="cls-1" d="M164.28,1811.15s47.54-52.23,93.66,0C257.94,1811.15,214.26,1858.49,164.28,1811.15Z" transform="translate(-0.07)"/><circle cx="78.02" cy="1801.43" r="12"/><circle cx="210.78" cy="1799.18" r="12"/><path class="cls-1" d="M180,1959.92l-35-145.43-36.3,144.9a121.39,121.39,0,0,0,36.51,5.35A122.17,122.17,0,0,0,180,1959.92Z" transform="translate(-0.07)"/></svg>