<svg id="Layer_1" data-name="Layer 1" xmlns="http://www.w3.org/2000/svg" viewBox="0 0 288.86 1965.04"><defs><style>.cls-1{fill:#016fae;}</style></defs><path d="M288.6.31H-.26s0,221.82,144.43,221.82S288.6.31,288.6.31Z" transform="translate(0.26 -0.31)"/><path class="cls-1" d="M50.75,113.27s94.9-104.26,187,0C237.72,113.27,150.51,207.79,50.75,113.27Z" transform="translate(0.26 -0.31)"/><circle cx="144.77" cy="111.46" r="18.75"/><path d="M288.6,249.34H-.26s0,221.82,144.43,221.82S288.6,249.34,288.6,249.34Z" transform="translate(0.26 -0.31)"/><path class="cls-1" d="M50.75,361.94s94.9-86.79,187,0C237.72,361.94,150.51,440.61,50.75,361.94Z" transform="translate(0.26 -0.31)"/><circle cx="144.77" cy="360.49" r="18.75"/><path d="M288.6,498.38H-.26s0,221.81,144.43,221.81S288.6,498.38,288.6,498.38Z" transform="translate(0.26 -0.31)"/><path class="cls-1" d="M50.75,610.61s94.9-69.09,187,0C237.72,610.61,150.51,673.23,50.75,610.61Z" transform="translate(0.26 -0.31)"/><circle cx="144.77" cy="609.53" r="18.75"/><path d="M288.6,747.41H-.26s0,221.82,144.43,221.82S288.6,747.41,288.6,747.41Z" transform="translate(0.26 -0.31)"/><path class="cls-1" d="M50.75,859.35s94.9-54.92,187,0C237.72,859.35,150.51,909.13,50.75,859.35Z" transform="translate(0.26 -0.31)"/><circle cx="144.77" cy="858.56" r="18.75"/><path d="M288.6,996.44H-.26s0,221.82,144.43,221.82S288.6,996.44,288.6,996.44Z" transform="translate(0.26 -0.31)"/><path class="cls-1" d="M50.75,1107.9s94.9-31.9,187,0C237.72,1107.9,150.51,1136.82,50.75,1107.9Z" transform="translate(0.26 -0.31)"/><circle cx="144.77" cy="1107.59" r="18.75"/><path d="M288.6,1245.48H-.26s0,221.81,144.43,221.81S288.6,1245.48,288.6,1245.48Z" transform="translate(0.26 -0.31)"/><path class="cls-1" d="M50.75,1356.68s94.9-19.51,187,0C237.72,1356.68,150.51,1374.36,50.75,1356.68Z" transform="translate(0.26 -0.31)"/><circle cx="144.77" cy="1356.63" r="18.75"/><path d="M288.6,1494.51H-.26s0,221.81,144.43,221.81S288.6,1494.51,288.6,1494.51Z" transform="translate(0.26 -0.31)"/><path class="cls-1" d="M50.75,1605.45s94.9-7.11,187,0A1519,1519,0,0,1,50.75,1605.45Z" transform="translate(0.26 -0.31)"/><circle cx="144.77" cy="1605.66" r="18.75"/><path d="M288.6,1743.54H-.26s0,221.82,144.43,221.82S288.6,1743.54,288.6,1743.54Z" transform="translate(0.26 -0.31)"/><circle cx="144.77" cy="1854.69" r="18.75"/></svg>