<?xml version="1.0" encoding="utf-8"?>
<!-- Generator: Adobe Illustrator 26.0.0, SVG Export Plug-In . SVG Version: 6.00 Build 0)  -->
<svg version="1.1" id="Layer_1" xmlns="http://www.w3.org/2000/svg" xmlns:xlink="http://www.w3.org/1999/xlink" x="0px" y="0px"
	 viewBox="0 0 1155 528" style="enable-background:new 0 0 1155 528;" xml:space="preserve">
<style type="text/css">
	.st0{fill:#FFFFFF;}
	.st1{fill:none;stroke:#020203;stroke-width:15;stroke-miterlimit:10;}
	.st2{fill:#018E6B;}
	.st3{fill:none;stroke:#020203;stroke-width:15;stroke-linecap:round;stroke-miterlimit:10;}
	.st4{fill:#F7A41D;}
	.st5{fill:#020203;}
</style>
<path class="st0" d="M774.3,96.1l86.6,73.2l-75.3,98l82.5,49.5l-64,106.2c0,0,278.5,19.6,249.6-206.3
	C1007,14.6,774.3,96.1,774.3,96.1z"/>
<ellipse transform="matrix(0.8954 -0.4453 0.4453 0.8954 2.0904 445.8602)" class="st1" cx="950" cy="218.5" rx="69.6" ry="56.9"/>
<ellipse transform="matrix(0.8954 -0.4453 0.4453 0.8954 3.3 447.3194)" class="st2" cx="953.8" cy="216.6" rx="41.7" ry="30.6"/>
<line class="st3" x1="958.9" y1="328.2" x2="995" y2="444.7"/>
<line class="st3" x1="1001.2" y1="325.1" x2="1044.5" y2="386.5"/>
<line class="st3" x1="1022.9" y1="284.9" x2="1113.6" y2="372.5"/>
<path class="st4" d="M728.9,270.8l66.7-111.4l-99-88.7v48.8L569.4,48l41.3,50.2L444.2,48l83.9,87.3l-79.8-9.6l41.9,47.4l-167.1-27.5
	l106.6,110.7l-103.8,52.3l98.3,41.3l-75,103.8L526,371.8l-39.9,51.7l108.7-22.8L519.2,486l178.8-41.9l3.4,45.4L819.7,323
	L728.9,270.8z M528.8,301.7l-63.3,54.1v-33.4h-47.4l59.8-44l-46.8-57.1l70.8,30.4l2.8-22.2l24.1,32.3L491,279.7L528.8,301.7z
	 M673.2,423.5l30.9-30.3l-103.8-21.3l73.6-20.6l-123.1-22.5l71.5-21.5l-12.4-38.5l57.1-10.3l-57.1-77l88.7,25.4l-13.8-35.8
	l42.6,15.1v-44.7l30.9,39.9l-68.1,101.1l83.9,60.5l-59.8,74.3L673.2,423.5z"/>
<polygon class="st5" points="407.1,469.3 419.9,439 422.6,458.7 463,463.8 429.1,469.3 435,503.7 424,489.4 379.6,482.1 "/>
<polygon class="st5" points="778.9,429.4 778.9,458.3 737.6,473.9 786.7,482.1 792.2,509.6 798.1,478.4 835.2,496.8 802.7,461 
	832.5,448.6 795.4,454.6 "/>
<polygon class="st5" points="1060.3,406.9 1055.9,450 1015.4,434.9 1045.2,462.4 1010.8,494.9 1044.8,481.6 1077.3,507.8 
	1077.3,474.8 1102.1,444.5 1069.1,452.3 "/>
<polygon class="st5" points="1043.5,55.5 1043.5,31.1 1070,69.3 1100.9,48 1082.7,81.3 1104,125.7 1065.2,100.9 1062.7,133.9 
	1039.7,84.1 1008.4,79.9 1039,67.6 1020.5,48 "/>
<polygon class="st5" points="733.7,50 739.5,28 744.7,55.5 753.3,25.6 755.7,55.5 804.2,50 750.9,70 749.2,87.2 735.8,66.9 
	731,79.9 728.5,65.5 693.1,52.1 "/>
<polygon class="st5" points="355.8,43.1 355.8,77.9 315.3,88.2 355.8,102.3 364.8,129.1 374.7,105.7 417.4,130.5 396.7,93 419.8,48 
	374.7,77.5 "/>
<polygon class="st5" points="143.3,63.1 112.4,66.2 148.2,74.1 157.8,101.9 155,73.4 198,74.4 159.2,60.7 182.2,35.2 155.2,55.2 
	146.4,35.2 "/>
<polygon class="st5" points="62.9,130.5 70.1,155.9 41.2,166.6 78,162.5 103.1,183.8 87,155.6 115.5,140.8 78.4,148.7 "/>
<polygon class="st5" points="46,295.2 53.6,328.5 24.7,344 53.6,344 61.5,391.1 66,343.1 112.7,325.1 68.7,329.2 81.5,299 
	63.6,321.3 "/>
</svg>
