<?xml version="1.0" encoding="utf-8"?>
<!-- Generator: Adobe Illustrator 26.0.0, SVG Export Plug-In . SVG Version: 6.00 Build 0)  -->
<svg version="1.1" id="Layer_1" xmlns="http://www.w3.org/2000/svg" xmlns:xlink="http://www.w3.org/1999/xlink" x="0px" y="0px"
	 viewBox="0 0 1920 249" style="enable-background:new 0 0 1920 249;" xml:space="preserve">
<style type="text/css">
	.st0{fill:#010101;}
	.st1{fill:#008C6A;}
</style>
<polygon class="st0" points="0,30.7 84,26.5 84,132.6 180.4,132.6 162,48.4 281,42.5 301.4,148.6 435,141.9 386,37.5 561.6,30.7 
	565.8,136.4 693.6,148.6 671,45 855,34.1 884,168.8 982,143.6 954,26.5 1117,35.8 1132,181.6 1265,164.6 1232,38.3 1337,37.5 
	1375,159.6 1496,135.1 1471,51.8 1604,24.8 1650,159.6 1790,133.9 1745,24.8 1920,11.3 1920,75.8 1833,94.7 1861,197.1 1636.7,219 
	1557,97.2 1537.7,115.2 1597,188.2 1380,242.1 1299,105.7 1287,106.5 1345,195.8 1075,242.1 1047,72 1012,83.8 1038,189 
	846.3,229.9 783.3,90.9 724,96.4 796,211.8 547,213.5 496,87.1 460,104.8 520,194.9 318,224.4 249,88.8 214,100.6 274,176.4 44,205 
	45,61.9 0,74.5 "/>
<ellipse transform="matrix(0.9348 -0.3551 0.3551 0.9348 79.5147 607.1848)" class="st1" cx="1693.9" cy="87" rx="37.4" ry="28.6"/>
<ellipse transform="matrix(0.9348 -0.3551 0.3551 0.9348 60.858 508.5666)" class="st1" cx="1415.9" cy="88.5" rx="33.1" ry="28.6"/>
<ellipse transform="matrix(0.9348 -0.3551 0.3551 0.9348 42.4789 426.4134)" class="st1" cx="1182.9" cy="97.5" rx="33.1" ry="28.6"/>
<ellipse transform="matrix(0.9348 -0.3551 0.3551 0.9348 25.2351 332.5943)" class="st1" cx="918.7" cy="97.5" rx="32.9" ry="28.6"/>
<ellipse transform="matrix(0.1362 -0.9907 0.9907 0.1362 447.2751 685.8334)" class="st1" cx="616.9" cy="86.4" rx="28.6" ry="32.2"/>
<ellipse transform="matrix(0.9987 -5.076725e-02 5.076725e-02 0.9987 -4.5344 17.6147)" class="st1" cx="344.5" cy="98.1" rx="28.5" ry="24.4"/>
<ellipse transform="matrix(0.9987 -5.076725e-02 5.076725e-02 0.9987 -3.5679 6.3244)" class="st1" cx="122.7" cy="73.4" rx="24.5" ry="20.3"/>
</svg>
