<svg id="Layer_1" data-name="Layer 1" xmlns="http://www.w3.org/2000/svg" viewBox="0 0 1933 310"><defs><style>.cls-1{fill:#016fae;}.cls-2{fill:#018b69;}.cls-3{fill:#ef591a;}.cls-4{fill:#fda510;}</style></defs><polygon class="cls-1" points="1000 266.17 983.13 204 1274 191 1267 274.6 1000 266.17"/><polygon class="cls-2" points="457.68 118 475 285 695.13 293 639.98 124 457.68 118"/><polygon class="cls-3" points="590 266 583 207 803.89 183 820 293 590 266"/><polyline class="cls-3" points="0 204 57.28 204 61 273 0 270"/><polyline class="cls-4" points="253.94 271.53 239 172 348 168.89 326 288.38 257 273.83"/><path d="M1868.54,282.36,1846,158.53l-98.45,18-36.76-93L1693.89,106l16.9,112.49,96.51-12.91,16.81,76.74H1687.46l-13-76.74L1643,213.83l-6,68.53h-22.78L1620,83.53H1340V230.74L1574.45,200,1568,132.6l-182,52.34-7-58.88,211-9.81-7.21,166.11H1298.7v-70.8l-338.7,0,13.77,70.83H941.42L924.91,122.53l-33.91,17L879,282.36H841V204.53L689.38,190.3,669,193.39V135.53l-238.89-13,19.66,159.83H348.53L381,176.53l-161,9,7,96.83H85.81L78,167.53l82-9v27l-44,12,6.72,40.26L196,217.87V122.53l-166,11,8,73.62H0v46H38v29.25H0v55.17H1933V282.36ZM1000,245.53l257.34-7-.28,43.8H1016.17Zm-296-14,90.7,7,1.08,43.8H607.94L602,245.53Zm-220-63,144-6,8.74,35.76-87.19,13.24,15.89,70.83H513.83Zm-227,50,69-8-20.34,71.83H270.11Z" transform="translate(0 -27.53)"/><polygon points="41 4 41 73.15 206.45 56 174 0 41 4"/><polygon class="cls-1" points="66 24 66 51.7 172 42 157 16 66 24"/><polygon points="337 88 348 124 253.94 124 253.94 82.34 337 88"/><polygon points="736 109 784 118 754 42 858.28 51.7 864 10 716.57 16 736 109"/><polygon points="1023 69 1015 158 1267 154 1240 51 1023 69"/><polygon class="cls-4" points="1045 97 1045 132.13 1217 126 1207.75 77 1045 97"/><polygon points="1815 36 1903.81 11 1903.81 101.49 1810.36 104.56 1815 36"/><polygon class="cls-4" points="1835.64 51 1835.64 77 1880.83 77 1880.83 36.38 1835.64 51"/></svg>