<?xml version="1.0" encoding="utf-8"?>
<!-- Generator: Adobe Illustrator 26.0.0, SVG Export Plug-In . SVG Version: 6.00 Build 0)  -->
<svg version="1.1" id="Layer_1" xmlns="http://www.w3.org/2000/svg" xmlns:xlink="http://www.w3.org/1999/xlink" x="0px" y="0px"
	 viewBox="0 0 387.3 784" style="enable-background:new 0 0 387.3 784;" xml:space="preserve">
<style type="text/css">
	.st0{fill:#FFFFFF;}
</style>
<polygon points="78,216.5 61.1,54.4 135.7,130.5 174.2,41 226.6,150.2 299.4,45.9 310.8,128.7 345.1,56.5 289.2,227.8 259.1,239 
	298.2,270.4 256.7,270.4 271.1,287 223.6,277.1 223,456.1 237.4,432 241.6,453.3 254.9,434.9 260.9,471.6 306.6,392.1 318.7,300.3 
	331.9,363.8 355.4,350.4 345.1,382.8 368,384.2 337.3,418 362,443.9 337.3,443.9 342.7,468.8 317.5,443.9 236.2,585.1 236.2,599.1 
	248.9,591.4 229,668.1 277.7,634.4 275.9,680.9 306,638.6 306.6,754.9 127.9,758.4 87,702 127.9,713.3 112.3,636.5 171.2,680.2 
	173,611.1 137.5,616 149.6,592.1 99.6,536.9 28.6,532.2 16,488.5 51.5,489.9 41.3,438.5 70.8,454 69,405.8 121.3,471.6 123.1,490.6 
	159.2,525.4 162.2,484 176.7,501.2 171.8,405.8 129.1,418 142.4,387 126.1,346.9 152.6,353.9 148.4,318 170,337 170.6,284.8 
	105.1,323.6 145.4,263 72,284.1 129.7,233.3 "/>
<polygon class="st0" points="105.7,198.6 87.6,122.2 141.8,160.4 172.4,94.6 221.8,181.9 287.4,100.2 282,160.1 307.8,140.4 
	278.9,215.1 240.4,229.9 260.9,256.6 229,250.9 249.5,270.4 214,261.6 215.8,564.7 223.6,548.4 222.4,499.1 235,468.8 229,536.9 
	247.7,466.7 247.1,516.7 282,468.8 285,440.6 310.2,413.8 318.7,363.1 322.3,392.1 336.1,374.3 332.5,399.7 346.3,396.9 328.3,418 
	346.3,436.4 327.1,427.2 328.3,443.9 316.9,423.7 308.4,437.8 308.4,423.7 291,443.9 291,471.6 224.2,578 224.2,620.3 235.6,608.3 
	220,668.1 227.2,689.4 269.9,654.1 267.5,706.3 298.8,668.1 297,740.8 137.5,743.6 118.3,720.2 146,727.4 127.9,662.6 176.1,702.7 
	183.3,639.3 192,664 192,609 174.9,594.2 155,604 161.6,587.9 105.7,525.4 44.9,525.4 34.7,507.5 60.5,499.8 56.9,458.9 84,484 
	82.2,443.9 109.9,482.1 109.9,510.4 130.9,525.4 131.5,506.1 136.9,536.9 141.2,519.5 145.4,552.6 183.9,578 172.4,513.9 
	197.1,570.4 182.1,392.1 149.6,399.7 165.8,383.5 146,364.5 164.6,364.5 161,344 180.3,354.6 179.1,267.2 155,283.4 161.6,250.9 
	127.9,250.9 159.2,224.9 "/>
</svg>
