<?xml version="1.0" encoding="utf-8"?>
<!-- Generator: Adobe Illustrator 26.0.0, SVG Export Plug-In . SVG Version: 6.00 Build 0)  -->
<svg version="1.1" id="Layer_1" xmlns="http://www.w3.org/2000/svg" xmlns:xlink="http://www.w3.org/1999/xlink" x="0px" y="0px"
	 viewBox="0 0 777 382" style="enable-background:new 0 0 777 382;" xml:space="preserve">
<polygon points="208.1,178.6 259.9,227.2 271.4,142.6 163.7,150.1 154.2,210.2 285.9,298.3 334.5,240.2 320,99 217.3,50.9 
	90.6,129.6 93.1,240.7 157.2,281.3 153.7,314.4 50.5,267.8 50.5,115 211.3,19.9 358,71 369.1,259.3 287.4,340.9 130.2,233.2 
	134.7,130.6 287.4,98.5 317.5,213.2 261.4,264.8 180.8,199.7 "/>
<polygon points="609,185.5 575.9,177.5 592.4,137.4 546.4,116.4 517.3,166 559.4,214.5 646,211 646,87.3 532.3,34.7 467.2,82.8 
	464.7,234.1 568.4,298.2 689.1,262.1 713.1,130.4 737.7,130.9 697.6,304.7 554.9,335.7 440.2,268.1 429.2,75.8 512.8,10.7 
	679.1,56.3 679.6,246.6 551.9,253.1 477.8,183.5 528.8,88.3 638.5,132.4 "/>
<ellipse transform="matrix(0.118 -0.993 0.993 0.118 170.6066 723.1912)" cx="492.4" cy="265.6" rx="11.7" ry="8.5"/>
<circle cx="303.5" cy="289.4" r="8.9"/>
<ellipse transform="matrix(0.92 -0.392 0.392 0.92 -76.428 250.9436)" cx="576.3" cy="312.6" rx="12.1" ry="10.4"/>
</svg>
