<?xml version="1.0" encoding="utf-8"?>
<!-- Generator: Adobe Illustrator 26.0.0, SVG Export Plug-In . SVG Version: 6.00 Build 0)  -->
<svg version="1.1" id="Layer_1" xmlns="http://www.w3.org/2000/svg" xmlns:xlink="http://www.w3.org/1999/xlink" x="0px" y="0px"
	 viewBox="0 0 777 382" style="enable-background:new 0 0 777 382;" xml:space="preserve">
<polygon points="208.1,178.6 259.9,227.2 271.4,142.6 163.7,150.1 154.2,210.2 285.9,298.3 334.5,240.2 320,99 217.3,50.9 
	90.6,129.6 93.1,240.7 157.2,281.3 153.7,314.4 50.5,267.8 50.5,115 211.3,19.9 358,71 369.1,259.3 287.4,340.9 130.2,233.2 
	134.7,130.6 287.4,98.5 317.5,213.2 261.4,264.8 180.8,199.7 "/>
<polygon points="609,185.5 575.9,177.5 592.4,137.4 546.4,116.4 517.3,166 559.4,214.5 646,211 646,87.3 532.3,34.7 467.2,82.8 
	464.7,234.1 568.4,298.2 689.1,262.1 713.1,130.4 737.7,130.9 697.6,304.7 554.9,335.7 440.2,268.1 429.2,75.8 512.8,10.7 
	679.1,56.3 679.6,246.6 551.9,253.1 477.8,183.5 528.8,88.3 638.5,132.4 "/>
<ellipse cx="82.3" cy="45.4" rx="12.8" ry="11"/>
<ellipse transform="matrix(0.8411 -0.5409 0.5409 0.8411 -165.5572 74.1135)" cx="43.4" cy="318.8" rx="11" ry="12.8"/>
<ellipse transform="matrix(0.7071 -0.7071 0.7071 0.7071 -187.6191 243.4487)" cx="200.1" cy="348.2" rx="10.2" ry="8.8"/>
<ellipse transform="matrix(0.8058 -0.5922 0.5922 0.8058 -64.4984 95.9639)" cx="114.1" cy="146.3" rx="10.2" ry="7.2"/>
<ellipse transform="matrix(0.9978 -6.563473e-02 6.563473e-02 0.9978 -5.0219 14.5582)" cx="219.1" cy="83.7" rx="10.2" ry="7.2"/>
<ellipse transform="matrix(0.2769 -0.9609 0.9609 0.2769 141.8036 735.5366)" cx="559.6" cy="273.5" rx="7.2" ry="10.4"/>
<ellipse transform="matrix(0.118 -0.993 0.993 0.118 297.9175 594.8663)" cx="483.8" cy="129.7" rx="10.4" ry="7.2"/>
<ellipse transform="matrix(0.118 -0.993 0.993 0.118 170.6066 723.1912)" cx="492.4" cy="265.6" rx="11.7" ry="8.5"/>
<ellipse transform="matrix(0.118 -0.993 0.993 0.118 62.4173 772.0895)" cx="465.8" cy="350.9" rx="11.7" ry="12.4"/>
<ellipse transform="matrix(0.7342 -0.6789 0.6789 0.7342 40.7531 416.5277)" cx="552.4" cy="156.2" rx="10.4" ry="7.2"/>
<ellipse transform="matrix(0.7342 -0.6789 0.6789 0.7342 98.3239 420.8102)" cx="586.6" cy="84.8" rx="13.4" ry="10.4"/>
<circle cx="630.9" cy="191.9" r="10.4"/>
<circle cx="303.5" cy="289.4" r="8.9"/>
<ellipse transform="matrix(0.1328 -0.9911 0.9911 0.1328 503.0023 785.0106)" cx="700.1" cy="105.1" rx="9.8" ry="7.2"/>
<ellipse transform="matrix(0.7071 -0.7071 0.7071 0.7071 171.7596 470.8371)" cx="654.2" cy="28.1" rx="8.2" ry="10.4"/>
<ellipse transform="matrix(0.92 -0.392 0.392 0.92 -76.428 250.9436)" cx="576.3" cy="312.6" rx="12.1" ry="10.4"/>
<ellipse transform="matrix(0.3178 -0.9482 0.9482 0.3178 211.2973 906.6882)" cx="735.7" cy="306.5" rx="12.1" ry="8.9"/>
<ellipse transform="matrix(0.606 -0.7955 0.7955 0.606 -44.0644 257.5879)" cx="238" cy="173.3" rx="8.6" ry="12.2"/>
<ellipse transform="matrix(0.5303 -0.8478 0.8478 0.5303 167.3099 381.2284)" cx="427.7" cy="39.6" rx="11.2" ry="8.3"/>
</svg>
