<svg id="Layer_1" data-name="Layer 1" xmlns="http://www.w3.org/2000/svg" viewBox="0 0 459 1031.61"><defs><style>.cls-1{fill:#010101;}.cls-2{fill:#f7a41d;}.cls-3{fill:#0470af;}.cls-4{fill:none;stroke:#f7a41d;stroke-linecap:round;stroke-miterlimit:10;stroke-width:10px;}.cls-5{fill:#fff;}.cls-6{fill:#ea5a1e;}.cls-7{fill:#008c6a;}</style></defs><path class="cls-1" d="M1,.06V1031.55s458,16.62,458-516.21S1,.06,1,.06Z" transform="translate(0 0.01)"/><polygon class="cls-2" points="438.53 339.35 447 377.35 415.55 393.06 436.23 450.35 386.45 483.21 432 518.35 406 558.35 443 594.35 398 645.35 441 673.35 431 701.35 391 695.35 359 636.35 403 593.74 359 575.35 359 536.29 403 528.35 347 493.35 397 438.25 369 402.35 403 367.35 422 367.35 438.53 339.35"/><ellipse class="cls-3" cx="223.98" cy="802.37" rx="52" ry="16" transform="translate(-527.9 443.71) rotate(-48.9)"/><ellipse class="cls-3" cx="203.41" cy="744.55" rx="32.39" ry="9.97" transform="translate(-276.12 139.76) rotate(-23.13)"/><ellipse class="cls-3" cx="173.54" cy="685.48" rx="43.68" ry="10.95" transform="translate(-65.37 19.96) rotate(-5.54)"/><ellipse class="cls-3" cx="189.14" cy="628.9" rx="10.95" ry="31.65" transform="translate(-467.57 633.24) rotate(-73.64)"/><ellipse class="cls-3" cx="225" cy="125.65" rx="16" ry="52" transform="translate(-27.15 178.88) rotate(-41.1)"/><ellipse class="cls-3" cx="204.44" cy="183.45" rx="9.97" ry="32.39" transform="translate(-44.57 299.4) rotate(-66.87)"/><ellipse class="cls-3" cx="176.31" cy="242.55" rx="11" ry="43.9" transform="translate(-82.58 393.85) rotate(-84.29)"/><ellipse class="cls-3" cx="190.14" cy="299.13" rx="31.65" ry="10.95" transform="translate(-76.56 65.68) rotate(-16.36)"/><path class="cls-4" d="M318,175.34s64.3,100.7-5.85,251.85" transform="translate(0 0.01)"/><path class="cls-4" d="M312.15,526S367,650.34,295,774.34" transform="translate(0 0.01)"/><path class="cls-2" d="M277,472.34c0-40-209-62.3-213-40.15s52,37.15,62.64,40.15c0,0-70.62,1-70.62,23S277,512.34,277,472.34Z" transform="translate(0 0.01)"/><path class="cls-5" d="M272,530.34l-24,37-4,124,28,71.58S354,648.34,272,530.34Z" transform="translate(0 0.01)"/><circle class="cls-6" cx="275" cy="644.35" r="25"/><path class="cls-5" d="M273,416.34l-24-37-4-124,28-71.57S355,298.34,273,416.34Z" transform="translate(0 0.01)"/><circle class="cls-6" cx="276" cy="302.35" r="25"/><path class="cls-5" d="M0,159.13V333.77S183,277.92,0,159.13Z" transform="translate(0 0.01)"/><path class="cls-6" d="M0,211.26v70.08S65,249.17,0,211.26Z" transform="translate(0 0.01)"/><path class="cls-5" d="M0,598.13V772.77S183,716.92,0,598.13Z" transform="translate(0 0.01)"/><path class="cls-6" d="M0,650.26v70.08S65,688.17,0,650.26Z" transform="translate(0 0.01)"/><polygon class="cls-7" points="40.67 80.71 100.75 50.29 153.85 104.91 97.26 127.35 40.67 80.71"/><polygon class="cls-7" points="28.89 931.44 103 850.35 182.45 890.9 130 986.35 28.89 931.44"/><path class="cls-7" d="M0,523.34v25c7,3,74,46,76,29C76,563.34,0,523.34,0,523.34Z" transform="translate(0 0.01)"/><path class="cls-7" d="M0,386.3v-25c7-3,74-46,76-29C76,346.3,0,386.3,0,386.3Z" transform="translate(0 0.01)"/></svg>