<?xml version="1.0" encoding="utf-8"?>
<!-- Generator: Adobe Illustrator 26.0.0, SVG Export Plug-In . SVG Version: 6.00 Build 0)  -->
<svg version="1.1" id="Layer_1" xmlns="http://www.w3.org/2000/svg" xmlns:xlink="http://www.w3.org/1999/xlink" x="0px" y="0px"
	 viewBox="0 0 1155 178" style="enable-background:new 0 0 1155 178;" xml:space="preserve">
<style type="text/css">
	.st0{fill:#FFFFFF;}
</style>
<polygon class="st0" points="43.4,28 43.4,7 58.3,25.5 89.8,17.5 66.6,32.5 85.8,54.5 59.8,40 38.1,65 47.8,39.5 17.4,24 "/>
<polygon class="st0" points="180.9,11.5 187.4,40.5 146.4,51 198.4,59.5 209.4,102.4 209.4,49.5 279.4,82 231.4,42 268.4,24 
	207.4,35.5 209.4,7 198.4,34 "/>
<polygon class="st0" points="382.1,59.5 387.3,18.5 394.8,54.7 413.3,43.5 400.8,59.5 478.3,81.5 396.3,75.5 378.3,138.9 
	382.1,75.5 317.9,62 "/>
<polygon class="st0" points="618,18.5 615.5,36.5 577.5,30 612,51.5 603.5,87.4 629,53 666.5,71 641,42 674.5,32.5 628.5,34.5 "/>
<polygon class="st0" points="533,77 526.8,109.4 478.3,119.1 528.8,123.9 523.3,153.9 540.3,123.4 566.8,134.9 545.3,110.9 
	571.8,89.4 538.8,99.9 "/>
<polygon class="st0" points="667.2,128.9 671.2,137.7 657.7,146.2 674.2,143.2 682.4,152.7 682.4,140.8 697.2,126.2 677.5,134.2 "/>
<polygon class="st0" points="729.2,60.7 729.2,98.2 682.4,107.7 735.2,117.2 742.2,161.2 753.2,117.7 794.2,131.7 752.7,105.7 
	798.7,91.7 742.7,91.7 "/>
<polygon class="st0" points="1121.4,57.8 1089.5,80.2 1048.1,54.1 1079,91.3 1068.4,124.8 1097.2,99.9 1107.9,145.6 1109.3,97.1 
	1144.4,97.1 1103.2,82.9 "/>
<polygon class="st0" points="973.6,8.5 952.1,47.5 865.1,44.5 941.6,67.5 915.6,105.9 959.6,76 987.1,107.9 975.1,66.5 1033.1,89.2 
	984.6,58.2 1036.6,35 978.6,47.5 998.1,24.5 971.2,41.5 "/>
<polygon class="st0" points="62.1,112.2 52.6,66.2 82.1,101.2 126.1,55.2 105.6,115.7 143.1,119.7 102.1,126.7 121.6,157.2 
	82.6,129.2 66.6,166.7 67.1,129.2 36.6,129.2 "/>
<polygon class="st0" points="310.4,102.4 310.4,123.9 283.4,129.4 314.9,132.4 314.9,158.9 319.9,133.4 339.9,136.9 317.9,123.9 
	329.9,102.4 315.4,115.4 "/>
<polygon class="st0" points="853.4,128.3 855.5,94.1 861.1,126.2 882,111.2 867.7,131.9 886.6,154.9 855.5,139.4 832,154.9 
	843.2,136.5 819.2,120.7 "/>
</svg>
