<svg id="Layer_1" data-name="Layer 1" xmlns="http://www.w3.org/2000/svg" viewBox="0 0 310.24 310.21"><polygon points="244.31 137.23 263 120.94 218.86 67.87 143.1 44.23 72.23 77.79 49.07 190.64 141.26 260.82 236.13 221.31 259.15 170.6 214.24 128.79 140.53 90.11 96.92 119.15 91.7 189.64 155.5 229.04 206.44 194.79 208.33 177.18 142.87 133.77 127.49 167.64 169.56 184.13 157.4 199.43 109.98 177.9 119.44 136.82 143.49 117.1 227.22 163.37 212.7 210.68 157.33 240.74 75.66 192.79 91.5 97.16 155.26 78.16 208 89.88 244.31 137.23"/><polygon points="87.36 236.35 65.27 265.44 47.9 251.37 71.07 224.6 87.36 236.35"/><polygon points="54.48 212.63 38.52 198.96 0 220.74 33.93 239.7 54.48 212.63"/><polygon points="38.57 175.95 1.04 181.95 16.33 148.26 42.88 154.88 38.57 175.95"/><polygon points="49.52 127.81 54.16 103.29 29.56 92.32 19.61 114.23 49.52 127.81"/><polygon points="61.34 83.46 65.68 73.89 77.59 65.98 56.03 34 40.7 44.8 36.06 67.46 61.34 83.46"/><polygon points="91.64 59.05 108.34 48.99 94.13 11.24 72.53 25.9 91.64 59.05"/><polygon points="132 41.86 140.34 37.87 135.62 0 116.04 5.32 132 41.86"/><polygon points="174.55 44.31 156.62 36.17 161.52 1.11 187.34 7.5 174.55 44.31"/><polygon points="220.55 60.31 199.11 50.58 208.09 16.91 234.75 29.03 220.55 60.31"/><polygon points="235.09 75.23 255.93 50.36 276.12 69.08 248.89 86.94 235.09 75.23"/><polygon points="273.46 125.68 267.57 103.41 294.07 93.69 304.11 126.13 273.46 125.68"/><polygon points="120.66 268.85 106.05 255.57 80.93 279.68 107.9 296.96 120.66 268.85"/><polygon points="276.32 164.37 275.71 147.05 310.24 142.38 306.1 171.06 276.32 164.37"/><polygon points="260.73 210.38 267.72 194.8 304.48 201.92 290.81 232.03 260.73 210.38"/><polygon points="243.47 232.9 226.85 244.72 238.36 274.8 268.84 253.13 243.47 232.9"/><polygon points="198.06 256.51 174.7 264.7 178.35 299.94 214.87 289.88 198.06 256.51"/><polygon points="154.22 272.9 139.71 277.5 129.89 306.95 154.04 310.21 154.22 272.9"/></svg>