<svg id="Layer_1" data-name="Layer 1" xmlns="http://www.w3.org/2000/svg" viewBox="0 0 195.15 217.77"><defs><style>.cls-1{fill:#0470af;}.cls-2{fill:#010101;}.cls-3{fill:#f7f6f1;}</style></defs><path class="cls-1" d="M261.34,86.31,66.9,304.08S43.9,111.14,261.34,86.31Z" transform="translate(-66.2 -86.31)"/><path class="cls-2" d="M261.35,86.31,66.9,304.08S259.23,305.15,261.35,86.31Z" transform="translate(-66.2 -86.31)"/><ellipse class="cls-3" cx="163.93" cy="194.82" rx="52.53" ry="45.74" transform="translate(-148.55 43.92) rotate(-35.23)"/><ellipse class="cls-2" cx="166.24" cy="195.83" rx="40.72" ry="38.05" transform="translate(-148.71 45.44) rotate(-35.23)"/><path class="cls-1" d="M192.33,177.8c-4.6-6.52-13.75-8.23-21.9-4.67-3.13-4.63-8.26-7.22-13.37-6.18-7.14,1.47-11.54,9.44-9.82,17.81a17.55,17.55,0,0,0,1.32,4,12.53,12.53,0,0,0-5.61,1.84c-5.17,3.21-7.16,9.38-4.43,13.79s9.14,5.4,14.32,2.19a12.45,12.45,0,0,0,2.41-1.93c-.09.39-.19.77-.26,1.17-1.45,8.42,3.2,16.25,10.38,17.49s14.18-4.59,15.63-13a17.93,17.93,0,0,0,.19-4.66,22.71,22.71,0,0,0,4.68-2.54C194.83,196.75,197.72,185.43,192.33,177.8Z" transform="translate(-66.2 -86.31)"/></svg>