<?xml version="1.0" encoding="utf-8"?>
<!-- Generator: Adobe Illustrator 26.0.0, SVG Export Plug-In . SVG Version: 6.00 Build 0)  -->
<svg version="1.1" id="Layer_1" xmlns="http://www.w3.org/2000/svg" xmlns:xlink="http://www.w3.org/1999/xlink" x="0px" y="0px"
	 viewBox="0 0 291.3 354.1" style="enable-background:new 0 0 291.3 354.1;" xml:space="preserve">
<style type="text/css">
	.st0{fill:#F7A41D;}
	.st1{fill:#EA5A1E;}
	.st2{fill:#F7F6F1;}
</style>
<path class="st0" d="M26.4,183.1c0,0,3.5,134.7,105.5,138.8c139.4,5.1,114.2-203,114.2-203l-41.5,74.8L173.3,58.3l-54.5,156.6
	l0.9-74l-50.4,81.1L26.4,183.1z"/>
<path class="st1" d="M71.3,262.3c0,0,6.1,56.6,59.6,59.6c76.8,0,83.8-83.8,83.8-83.8l-54.5,57.6l2-44.4L141,299.7l-9.1-33.3l-7,31.3
	L71.3,262.3z"/>
<circle class="st2" cx="161.2" cy="40.1" r="8.1"/>
<ellipse transform="matrix(0.3859 -0.9225 0.9225 0.3859 98.2122 270.2127)" class="st2" cx="252.1" cy="61.3" rx="16.2" ry="12.1"/>
<ellipse class="st2" cx="125.8" cy="108.8" rx="8.1" ry="9.1"/>
<ellipse transform="matrix(0.9953 -9.671437e-02 9.671437e-02 0.9953 -9.5179 21.2771)" class="st2" cx="214.7" cy="108.8" rx="8.1" ry="9.1"/>
<ellipse transform="matrix(0.2292 -0.9734 0.9734 0.2292 1.5627 146.8932)" class="st2" cx="93.5" cy="72.5" rx="9.1" ry="8.1"/>
<ellipse transform="matrix(0.2292 -0.9734 0.9734 0.2292 -104.6264 192.597)" class="st2" cx="69.3" cy="162.4" rx="12.1" ry="8.1"/>
</svg>
