<svg id="Layer_1" data-name="Layer 1" xmlns="http://www.w3.org/2000/svg" viewBox="0 0 441.53 362.22"><defs><style>.cls-1{fill:#f7a41d;}.cls-2{fill:#010101;}.cls-3{fill:#f7f6f1;}.cls-4{fill:#ea5a1e;}.cls-5{fill:#0470af;}</style></defs><path class="cls-1" d="M81.29,98.64l50.23-2.47s62,234.34,244.54-9.86c0,0,14.8,4.93,33.3,9.86C388.39,239.24,173.79,516.74,81.29,98.64Z" transform="translate(-14.69 -23.41)"/><path class="cls-2" d="M81.29,98.17l-66.6-13.1s24.67,281.2,206,299.7S456.23,115.91,456.23,115.91l-47.3-19.63s-57.54,213.26-168.54,196S81.29,98.17,81.29,98.17Z" transform="translate(-14.69 -23.41)"/><ellipse class="cls-3" cx="229.91" cy="136.87" rx="32.07" ry="37.62" transform="translate(25.47 302.12) rotate(-75.6)"/><polygon class="cls-4" points="266.4 18.5 267.63 51.8 213.21 51.8 267.63 73.45 270.1 103.6 283.67 78.93 315.73 92.5 297.6 61.05 323.13 49.33 284.9 49.33 266.4 18.5"/><polygon class="cls-5" points="112.23 0 114.7 50.57 177.6 74 163.46 18.5 112.23 0"/></svg>