<svg id="Layer_1" data-name="Layer 1" xmlns="http://www.w3.org/2000/svg" viewBox="0 0 1729.96 1985.94"><defs><style>.cls-1{fill:#016fae;}.cls-2{fill:#018b69;}.cls-3{fill:#f2f9f1;}.cls-4{fill:#fda510;}.cls-5{fill:#ef591a;}</style></defs><path d="M287.71.31H-.26s0,221.13,144,221.13S287.71.31,287.71.31Z" transform="translate(0.26 -0.31)"/><path d="M289.45,248.36h288s0-221.13-144-221.13S289.45,248.36,289.45,248.36Z" transform="translate(0.26 -0.31)"/><path d="M865,.31h-288s0,221.13,144,221.13S865,.31,865,.31Z" transform="translate(0.26 -0.31)"/><path d="M866.24,248.27h288s0-221.13-144-221.13S866.24,248.27,866.24,248.27Z" transform="translate(0.26 -0.31)"/><path d="M1441.5.31h-288s0,221.13,144,221.13S1441.5.31,1441.5.31Z" transform="translate(0.26 -0.31)"/><path class="cls-1" d="M50.59,112.92S145.19,9,237,112.92C237,112.92,150.05,207.14,50.59,112.92Z" transform="translate(0.26 -0.31)"/><path class="cls-2" d="M489.49,162.55s-56.55,62.14-111.42,0C378.07,162.55,430,106.23,489.49,162.55Z" transform="translate(0.26 -0.31)"/><path class="cls-2" d="M489.49,92.26s-56.55,62.14-111.42,0C378.07,92.26,430,35.94,489.49,92.26Z" transform="translate(0.26 -0.31)"/><path class="cls-3" d="M719.54,37.76s81.44,74.11,0,146C719.54,183.78,645.73,115.68,719.54,37.76Z" transform="translate(0.26 -0.31)"/><path class="cls-4" d="M934.23,107.89s30.1-15.44,59.3,0C993.53,107.89,965.87,121.88,934.23,107.89Z" transform="translate(0.26 -0.31)"/><path class="cls-4" d="M1027.7,107.89s30.1-15.44,59.3,0C1087,107.89,1059.34,121.88,1027.7,107.89Z" transform="translate(0.26 -0.31)"/><path class="cls-4" d="M920.77,147.89s30.1-33.07,59.3,0C980.07,147.89,952.41,177.86,920.77,147.89Z" transform="translate(0.26 -0.31)"/><path class="cls-4" d="M1041.16,147.89s30.1-33.07,59.3,0C1100.46,147.89,1072.8,177.86,1041.16,147.89Z" transform="translate(0.26 -0.31)"/><path class="cls-4" d="M933.48,187s30.1-6.61,59.3,0A165.9,165.9,0,0,1,933.48,187Z" transform="translate(0.26 -0.31)"/><path class="cls-4" d="M1027,187s30.1-6.61,59.3,0A165.9,165.9,0,0,1,1027,187Z" transform="translate(0.26 -0.31)"/><path class="cls-5" d="M1184.89,68s47.39-52.07,93.37,0C1278.26,68,1234.71,115.21,1184.89,68Z" transform="translate(0.26 -0.31)"/><path class="cls-5" d="M1317.24,68s47.39-52.07,93.37,0C1410.61,68,1367.06,115.21,1317.24,68Z" transform="translate(0.26 -0.31)"/><circle cx="144.32" cy="111.11" r="18.69"/><circle cx="721.59" cy="87.19" r="18.69"/><circle cx="1231.57" cy="68.49" r="11.96"/><circle cx="963.5" cy="186.27" r="7.1"/><circle cx="950.79" cy="146.63" r="7.1"/><circle cx="964.25" cy="107.75" r="7.1"/><circle cx="1056.97" cy="107.75" r="7.1"/><circle cx="1071.92" cy="146.63" r="7.1"/><circle cx="1057.72" cy="186.27" r="7.1"/><circle cx="433.66" cy="102.53" r="11.96"/><circle cx="433.66" cy="153.38" r="11.96"/><circle cx="1363.93" cy="66.25" r="11.96"/><path class="cls-5" d="M1332.92,216.33l-34.86-145L1261.88,215.8a126.93,126.93,0,0,0,71,.53Z" transform="translate(0.26 -0.31)"/><path d="M287.71,248.57H-.26s0,221.13,144,221.13S287.71,248.57,287.71,248.57Z" transform="translate(0.26 -0.31)"/><path d="M289.45,496.62h288s0-221.13-144-221.13S289.45,496.62,289.45,496.62Z" transform="translate(0.26 -0.31)"/><path d="M865,248.57h-288s0,221.13,144,221.13S865,248.57,865,248.57Z" transform="translate(0.26 -0.31)"/><path d="M866.24,496.53h288s0-221.13-144-221.13S866.24,496.53,866.24,496.53Z" transform="translate(0.26 -0.31)"/><path d="M1441.5,248.57h-288s0,221.13,144,221.13S1441.5,248.57,1441.5,248.57Z" transform="translate(0.26 -0.31)"/><path class="cls-1" d="M50.59,360.82s94.6-86.52,186.39,0C237,360.82,150.05,439.24,50.59,360.82Z" transform="translate(0.26 -0.31)"/><path class="cls-2" d="M489.49,410.81s-56.55,62.13-111.42,0C378.07,410.81,430,354.49,489.49,410.81Z" transform="translate(0.26 -0.31)"/><path class="cls-2" d="M489.49,340.52s-56.55,62.13-111.42,0C378.07,340.52,430,284.2,489.49,340.52Z" transform="translate(0.26 -0.31)"/><path class="cls-3" d="M719.54,286s81.44,74.11,0,146C719.54,432,645.73,363.93,719.54,286Z" transform="translate(0.26 -0.31)"/><path class="cls-4" d="M934.23,356.29s30.1-22.49,59.3,0C993.53,356.29,965.87,376.68,934.23,356.29Z" transform="translate(0.26 -0.31)"/><path class="cls-4" d="M1027.7,356.29s30.1-22.49,59.3,0C1087,356.29,1059.34,376.68,1027.7,356.29Z" transform="translate(0.26 -0.31)"/><path class="cls-4" d="M920.77,395.92s30.1-22.49,59.3,0C980.07,395.92,952.41,416.32,920.77,395.92Z" transform="translate(0.26 -0.31)"/><path class="cls-4" d="M1041.16,395.92s30.1-22.49,59.3,0C1100.46,395.92,1072.8,416.32,1041.16,395.92Z" transform="translate(0.26 -0.31)"/><path class="cls-5" d="M1184.89,316.27s47.39-52.06,93.37,0C1278.26,316.27,1234.71,363.47,1184.89,316.27Z" transform="translate(0.26 -0.31)"/><path class="cls-5" d="M1317.24,316.27s47.39-52.06,93.37,0C1410.61,316.27,1367.06,363.47,1317.24,316.27Z" transform="translate(0.26 -0.31)"/><circle cx="144.32" cy="359.37" r="18.69"/><circle cx="721.59" cy="341.43" r="18.69"/><circle cx="1231.57" cy="322.73" r="11.96"/><circle cx="963.5" cy="434.52" r="7.1"/><circle cx="950.79" cy="394.89" r="7.1"/><circle cx="964.25" cy="356.01" r="7.1"/><circle cx="1056.97" cy="356.01" r="7.1"/><circle cx="1071.92" cy="394.89" r="7.1"/><circle cx="1057.72" cy="434.52" r="7.1"/><circle cx="439.65" cy="347.8" r="11.96"/><circle cx="427.68" cy="401.64" r="11.96"/><circle cx="1363.93" cy="320.49" r="11.96"/><path class="cls-5" d="M1332.92,464.58l-34.86-145-36.18,144.45a127,127,0,0,0,71,.52Z" transform="translate(0.26 -0.31)"/><path d="M287.71,496.83H-.26S-.26,718,143.73,718,287.71,496.83,287.71,496.83Z" transform="translate(0.26 -0.31)"/><path d="M289.45,744.87h288s0-221.12-144-221.12S289.45,744.87,289.45,744.87Z" transform="translate(0.26 -0.31)"/><path d="M865,496.83h-288s0,221.12,144,221.12S865,496.83,865,496.83Z" transform="translate(0.26 -0.31)"/><path d="M866.24,744.78h288s0-221.12-144-221.12S866.24,744.78,866.24,744.78Z" transform="translate(0.26 -0.31)"/><path d="M1441.5,496.83h-288s0,221.12,144,221.12S1441.5,496.83,1441.5,496.83Z" transform="translate(0.26 -0.31)"/><path class="cls-1" d="M50.59,608.71s94.6-68.87,186.39,0C237,608.71,150.05,671.14,50.59,608.71Z" transform="translate(0.26 -0.31)"/><path class="cls-2" d="M489.49,659.07s-56.55,62.13-111.42,0C378.07,659.07,430,602.75,489.49,659.07Z" transform="translate(0.26 -0.31)"/><path class="cls-2" d="M489.49,588.78s-56.55,62.13-111.42,0C378.07,588.78,430,532.46,489.49,588.78Z" transform="translate(0.26 -0.31)"/><path class="cls-3" d="M719.54,534.28s81.44,74.11,0,146C719.54,680.3,645.73,612.19,719.54,534.28Z" transform="translate(0.26 -0.31)"/><path class="cls-4" d="M934.23,604.77s30.1-33.07,59.3,0C993.53,604.77,965.87,634.75,934.23,604.77Z" transform="translate(0.26 -0.31)"/><path class="cls-4" d="M1027.7,604.77s30.1-33.07,59.3,0C1087,604.77,1059.34,634.75,1027.7,604.77Z" transform="translate(0.26 -0.31)"/><path class="cls-4" d="M920.77,644.07s30.1-17.2,59.3,0A67.13,67.13,0,0,1,920.77,644.07Z" transform="translate(0.26 -0.31)"/><path class="cls-4" d="M1041.16,644.07s30.1-17.2,59.3,0A67.13,67.13,0,0,1,1041.16,644.07Z" transform="translate(0.26 -0.31)"/><path class="cls-4" d="M933.48,683.48s30.1-6.61,59.3,0A165.63,165.63,0,0,1,933.48,683.48Z" transform="translate(0.26 -0.31)"/><path class="cls-4" d="M1027,683.48s30.1-6.61,59.3,0A165.63,165.63,0,0,1,1027,683.48Z" transform="translate(0.26 -0.31)"/><path class="cls-5" d="M1184.89,564.53s47.39-52.06,93.37,0C1278.26,564.53,1234.71,611.73,1184.89,564.53Z" transform="translate(0.26 -0.31)"/><path class="cls-5" d="M1317.24,564.53s47.39-52.06,93.37,0C1410.61,564.53,1367.06,611.73,1317.24,564.53Z" transform="translate(0.26 -0.31)"/><circle cx="144.32" cy="607.63" r="18.69"/><circle cx="721.59" cy="595.67" r="18.69"/><circle cx="1231.57" cy="578.47" r="11.96"/><circle cx="963.5" cy="682.78" r="7.1"/><circle cx="950.79" cy="643.15" r="7.1"/><circle cx="964.25" cy="604.27" r="7.1"/><circle cx="1056.97" cy="604.27" r="7.1"/><circle cx="1071.92" cy="643.15" r="7.1"/><circle cx="1057.72" cy="682.78" r="7.1"/><circle cx="445.63" cy="596.06" r="11.96"/><circle cx="421.7" cy="651.39" r="11.96"/><circle cx="1363.93" cy="576.23" r="11.96"/><path class="cls-5" d="M1332.92,712.84l-34.86-145-36.18,144.44a126.93,126.93,0,0,0,71,.53Z" transform="translate(0.26 -0.31)"/><path d="M287.71,745.09H-.26s0,221.12,144,221.12S287.71,745.09,287.71,745.09Z" transform="translate(0.26 -0.31)"/><path d="M289.45,993.13h288s0-221.12-144-221.12S289.45,993.13,289.45,993.13Z" transform="translate(0.26 -0.31)"/><path d="M865,745.09h-288s0,221.12,144,221.12S865,745.09,865,745.09Z" transform="translate(0.26 -0.31)"/><path d="M866.24,993h288s0-221.12-144-221.12S866.24,993,866.24,993Z" transform="translate(0.26 -0.31)"/><path d="M1441.5,745.09h-288s0,221.12,144,221.12S1441.5,745.09,1441.5,745.09Z" transform="translate(0.26 -0.31)"/><path class="cls-1" d="M50.59,856.68s94.6-54.75,186.39,0C237,856.68,150.05,906.3,50.59,856.68Z" transform="translate(0.26 -0.31)"/><path class="cls-2" d="M489.49,907.33s-56.55,62.13-111.42,0C378.07,907.33,430,851,489.49,907.33Z" transform="translate(0.26 -0.31)"/><path class="cls-2" d="M489.49,837s-56.55,62.13-111.42,0C378.07,837,430,780.72,489.49,837Z" transform="translate(0.26 -0.31)"/><path class="cls-3" d="M719.54,782.53s81.44,74.12,0,146C719.54,928.56,645.73,860.45,719.54,782.53Z" transform="translate(0.26 -0.31)"/><path class="cls-4" d="M934.23,852.85s30.1-24.26,59.3,0C993.53,852.85,965.87,874.84,934.23,852.85Z" transform="translate(0.26 -0.31)"/><path class="cls-4" d="M1027.7,852.85s30.1-24.26,59.3,0C1087,852.85,1059.34,874.84,1027.7,852.85Z" transform="translate(0.26 -0.31)"/><path class="cls-4" d="M920.77,892.15s30.1-8.38,59.3,0A131.66,131.66,0,0,1,920.77,892.15Z" transform="translate(0.26 -0.31)"/><path class="cls-4" d="M1041.16,892.15s30.1-8.38,59.3,0A131.66,131.66,0,0,1,1041.16,892.15Z" transform="translate(0.26 -0.31)"/><path class="cls-4" d="M933.48,932s30.1-17.2,59.3,0A67.09,67.09,0,0,1,933.48,932Z" transform="translate(0.26 -0.31)"/><path class="cls-4" d="M1027,932s30.1-17.2,59.3,0A67.09,67.09,0,0,1,1027,932Z" transform="translate(0.26 -0.31)"/><path class="cls-5" d="M1184.89,812.79s47.39-52.07,93.37,0C1278.26,812.79,1234.71,860,1184.89,812.79Z" transform="translate(0.26 -0.31)"/><path class="cls-5" d="M1317.24,812.79s47.39-52.07,93.37,0C1410.61,812.79,1367.06,860,1317.24,812.79Z" transform="translate(0.26 -0.31)"/><circle cx="144.32" cy="855.89" r="18.69"/><circle cx="721.59" cy="849.91" r="18.69"/><circle cx="1231.57" cy="832.71" r="11.96"/><circle cx="963.5" cy="931.04" r="7.1"/><circle cx="950.79" cy="891.41" r="7.1"/><circle cx="964.25" cy="852.53" r="7.1"/><circle cx="1056.97" cy="852.53" r="7.1"/><circle cx="1071.92" cy="891.41" r="7.1"/><circle cx="1057.72" cy="931.04" r="7.1"/><circle cx="457.59" cy="841.33" r="11.96"/><circle cx="414.22" cy="901.15" r="11.96"/><circle cx="1363.93" cy="830.47" r="11.96"/><path class="cls-5" d="M1332.92,961.1l-34.86-145-36.18,144.45a126.93,126.93,0,0,0,71,.53Z" transform="translate(0.26 -0.31)"/><path d="M287.71,993.35H-.26s0,221.12,144,221.12S287.71,993.35,287.71,993.35Z" transform="translate(0.26 -0.31)"/><path d="M289.45,1241.39h288s0-221.12-144-221.12S289.45,1241.39,289.45,1241.39Z" transform="translate(0.26 -0.31)"/><path d="M865,993.35h-288s0,221.12,144,221.12S865,993.35,865,993.35Z" transform="translate(0.26 -0.31)"/><path d="M866.24,1241.3h288s0-221.12-144-221.12S866.24,1241.3,866.24,1241.3Z" transform="translate(0.26 -0.31)"/><path d="M1441.5,993.35h-288s0,221.12,144,221.12S1441.5,993.35,1441.5,993.35Z" transform="translate(0.26 -0.31)"/><path class="cls-1" d="M50.59,1104.46s94.6-31.81,186.39,0C237,1104.46,150.05,1133.28,50.59,1104.46Z" transform="translate(0.26 -0.31)"/><path class="cls-2" d="M489.49,1155.59s-56.55,62.13-111.42,0C378.07,1155.59,430,1099.26,489.49,1155.59Z" transform="translate(0.26 -0.31)"/><path class="cls-2" d="M489.49,1085.3s-56.55,62.13-111.42,0C378.07,1085.3,430,1029,489.49,1085.3Z" transform="translate(0.26 -0.31)"/><path class="cls-3" d="M719.54,1030.79s81.44,74.12,0,146C719.54,1176.82,645.73,1108.71,719.54,1030.79Z" transform="translate(0.26 -0.31)"/><path class="cls-4" d="M934.23,1100.92s30.1-15.43,59.3,0C993.53,1100.92,965.87,1114.91,934.23,1100.92Z" transform="translate(0.26 -0.31)"/><path class="cls-4" d="M1027.7,1100.92s30.1-15.43,59.3,0C1087,1100.92,1059.34,1114.91,1027.7,1100.92Z" transform="translate(0.26 -0.31)"/><path class="cls-4" d="M933.48,1180.33s30.1-22.49,59.3,0C992.78,1180.33,965.12,1200.72,933.48,1180.33Z" transform="translate(0.26 -0.31)"/><path class="cls-4" d="M1027,1180.33s30.1-22.49,59.3,0C1086.25,1180.33,1058.59,1200.72,1027,1180.33Z" transform="translate(0.26 -0.31)"/><path class="cls-5" d="M1184.89,1061.05s47.39-52.07,93.37,0C1278.26,1061.05,1234.71,1108.25,1184.89,1061.05Z" transform="translate(0.26 -0.31)"/><path class="cls-5" d="M1317.24,1061.05s47.39-52.07,93.37,0C1410.61,1061.05,1367.06,1108.25,1317.24,1061.05Z" transform="translate(0.26 -0.31)"/><circle cx="144.32" cy="1104.15" r="18.69"/><circle cx="721.59" cy="1104.15" r="18.69"/><circle cx="1231.57" cy="1089.94" r="11.96"/><circle cx="963.5" cy="1179.3" r="7.1"/><circle cx="950.79" cy="1139.67" r="7.1"/><circle cx="964.25" cy="1100.78" r="7.1"/><circle cx="1056.97" cy="1100.78" r="7.1"/><circle cx="1071.92" cy="1139.67" r="7.1"/><circle cx="1057.72" cy="1179.3" r="7.1"/><circle cx="465.07" cy="1086.59" r="11.96"/><circle cx="403.75" cy="1153.89" r="11.96"/><circle cx="1363.93" cy="1087.7" r="11.96"/><circle cx="1231.76" cy="1031.69" r="11.96"/><circle cx="1364.12" cy="1029.44" r="11.96"/><path class="cls-5" d="M1332.92,1209.36l-34.86-145-36.18,144.45a126.93,126.93,0,0,0,71,.53Z" transform="translate(0.26 -0.31)"/><path d="M287.71,1241.6H-.26s0,221.13,144,221.13S287.71,1241.6,287.71,1241.6Z" transform="translate(0.26 -0.31)"/><path d="M289.45,1489.65h288s0-221.13-144-221.13S289.45,1489.65,289.45,1489.65Z" transform="translate(0.26 -0.31)"/><path d="M865,1241.6h-288s0,221.13,144,221.13S865,1241.6,865,1241.6Z" transform="translate(0.26 -0.31)"/><path d="M866.24,1489.56h288s0-221.13-144-221.13S866.24,1489.56,866.24,1489.56Z" transform="translate(0.26 -0.31)"/><path d="M1441.5,1241.6h-288s0,221.13,144,221.13S1441.5,1241.6,1441.5,1241.6Z" transform="translate(0.26 -0.31)"/><path class="cls-1" d="M50.59,1352.46s94.6-19.45,186.39,0C237,1352.46,150.05,1370.09,50.59,1352.46Z" transform="translate(0.26 -0.31)"/><path class="cls-2" d="M489.49,1403.85s-56.55,62.13-111.42,0C378.07,1403.85,430,1347.52,489.49,1403.85Z" transform="translate(0.26 -0.31)"/><path class="cls-2" d="M489.49,1333.56s-56.55,62.13-111.42,0C378.07,1333.56,430,1277.23,489.49,1333.56Z" transform="translate(0.26 -0.31)"/><path class="cls-3" d="M719.54,1279.05s81.44,74.12,0,146C719.54,1425.08,645.73,1357,719.54,1279.05Z" transform="translate(0.26 -0.31)"/><path class="cls-4" d="M934.23,1349s30.1-8.37,59.3,0A131.5,131.5,0,0,1,934.23,1349Z" transform="translate(0.26 -0.31)"/><path class="cls-4" d="M1027.7,1349s30.1-8.37,59.3,0A131.5,131.5,0,0,1,1027.7,1349Z" transform="translate(0.26 -0.31)"/><path class="cls-4" d="M920.77,1388.63s30.1-6.61,59.3,0A165.9,165.9,0,0,1,920.77,1388.63Z" transform="translate(0.26 -0.31)"/><path class="cls-4" d="M1041.16,1388.63s30.1-6.61,59.3,0A165.9,165.9,0,0,1,1041.16,1388.63Z" transform="translate(0.26 -0.31)"/><path class="cls-4" d="M933.48,1428.81s30.1-33.07,59.3,0C992.78,1428.81,965.12,1458.79,933.48,1428.81Z" transform="translate(0.26 -0.31)"/><path class="cls-4" d="M1027,1428.81s30.1-33.07,59.3,0C1086.25,1428.81,1058.59,1458.79,1027,1428.81Z" transform="translate(0.26 -0.31)"/><path class="cls-5" d="M1184.89,1309.31s47.39-52.07,93.37,0C1278.26,1309.31,1234.71,1356.51,1184.89,1309.31Z" transform="translate(0.26 -0.31)"/><path class="cls-5" d="M1317.24,1309.31s47.39-52.07,93.37,0C1410.61,1309.31,1367.06,1356.51,1317.24,1309.31Z" transform="translate(0.26 -0.31)"/><circle cx="144.32" cy="1352.41" r="18.69"/><circle cx="721.59" cy="1346.43" r="18.69"/><circle cx="1231.57" cy="1284.36" r="11.96"/><circle cx="963.5" cy="1427.56" r="7.1"/><circle cx="950.79" cy="1387.93" r="7.1"/><circle cx="964.25" cy="1349.04" r="7.1"/><circle cx="1056.97" cy="1349.04" r="7.1"/><circle cx="1071.92" cy="1387.93" r="7.1"/><circle cx="1057.72" cy="1427.56" r="7.1"/><circle cx="456.1" cy="1339.34" r="11.96"/><circle cx="411.23" cy="1397.67" r="11.96"/><circle cx="1363.93" cy="1282.12" r="11.96"/><path class="cls-5" d="M1332.92,1457.62l-34.86-145-36.18,144.45a126.93,126.93,0,0,0,71,.53Z" transform="translate(0.26 -0.31)"/><path d="M287.71,1489.86H-.26s0,221.13,144,221.13S287.71,1489.86,287.71,1489.86Z" transform="translate(0.26 -0.31)"/><path d="M289.45,1737.91h288s0-221.13-144-221.13S289.45,1737.91,289.45,1737.91Z" transform="translate(0.26 -0.31)"/><path d="M865,1489.86h-288s0,221.13,144,221.13S865,1489.86,865,1489.86Z" transform="translate(0.26 -0.31)"/><path d="M866.24,1737.82h288s0-221.13-144-221.13S866.24,1737.82,866.24,1737.82Z" transform="translate(0.26 -0.31)"/><path d="M1441.5,1489.86h-288s0,221.13,144,221.13S1441.5,1489.86,1441.5,1489.86Z" transform="translate(0.26 -0.31)"/><path class="cls-1" d="M50.59,1600.46s94.6-7.09,186.39,0A1514.2,1514.2,0,0,1,50.59,1600.46Z" transform="translate(0.26 -0.31)"/><path class="cls-2" d="M489.49,1652.1s-56.55,62.14-111.42,0C378.07,1652.1,430,1595.78,489.49,1652.1Z" transform="translate(0.26 -0.31)"/><path class="cls-2" d="M489.49,1581.81s-56.55,62.14-111.42,0C378.07,1581.81,430,1525.49,489.49,1581.81Z" transform="translate(0.26 -0.31)"/><path class="cls-3" d="M719.54,1527.31s81.44,74.12,0,146C719.54,1673.33,645.73,1605.23,719.54,1527.31Z" transform="translate(0.26 -0.31)"/><path class="cls-4" d="M914.79,1637s30.09-11.91,59.29,0C974.08,1637,946.43,1647.79,914.79,1637Z" transform="translate(0.26 -0.31)"/><path class="cls-4" d="M1035.18,1637s30.09-11.91,59.3,0C1094.48,1637,1066.82,1647.79,1035.18,1637Z" transform="translate(0.26 -0.31)"/><path class="cls-4" d="M927.5,1676.89s30.1-24.27,59.3,0C986.8,1676.89,959.14,1698.88,927.5,1676.89Z" transform="translate(0.26 -0.31)"/><path class="cls-4" d="M1021,1676.89s30.1-24.27,59.3,0C1080.27,1676.89,1052.61,1698.88,1021,1676.89Z" transform="translate(0.26 -0.31)"/><path class="cls-5" d="M1184.89,1557.57s47.39-52.07,93.37,0C1278.26,1557.57,1234.71,1604.77,1184.89,1557.57Z" transform="translate(0.26 -0.31)"/><path class="cls-5" d="M1317.24,1557.57s47.39-52.07,93.37,0C1410.61,1557.57,1367.06,1604.77,1317.24,1557.57Z" transform="translate(0.26 -0.31)"/><circle cx="144.32" cy="1600.67" r="18.69"/><circle cx="721.59" cy="1588.7" r="18.69"/><circle cx="1231.57" cy="1537.11" r="11.96"/><circle cx="957.52" cy="1675.82" r="7.1"/><circle cx="944.8" cy="1636.18" r="7.1"/><circle cx="958.26" cy="1597.3" r="7.1"/><circle cx="1050.99" cy="1597.3" r="7.1"/><circle cx="1065.94" cy="1636.18" r="7.1"/><circle cx="1051.73" cy="1675.82" r="7.1"/><circle cx="451.61" cy="1590.59" r="11.96"/><circle cx="421.7" cy="1642.93" r="11.96"/><circle cx="1363.93" cy="1534.86" r="11.96"/><path class="cls-5" d="M1332.92,1705.88l-34.86-145-36.18,144.45a126.93,126.93,0,0,0,71,.53Z" transform="translate(0.26 -0.31)"/><path d="M287.71,1738.12H-.26s0,221.13,144,221.13S287.71,1738.12,287.71,1738.12Z" transform="translate(0.26 -0.31)"/><path d="M289.45,1986.17h288s0-221.13-144-221.13S289.45,1986.17,289.45,1986.17Z" transform="translate(0.26 -0.31)"/><path d="M866.53,1738.12h-288s0,221.13,144,221.13S866.53,1738.12,866.53,1738.12Z" transform="translate(0.26 -0.31)"/><path d="M867.74,1986.08h288s0-221.13-144-221.13S867.74,1986.08,867.74,1986.08Z" transform="translate(0.26 -0.31)"/><path d="M1443,1738.12H1155s0,221.13,144,221.13S1443,1738.12,1443,1738.12Z" transform="translate(0.26 -0.31)"/><path class="cls-2" d="M489.49,1900.36s-56.55,62.14-111.42,0C378.07,1900.36,430,1844,489.49,1900.36Z" transform="translate(0.26 -0.31)"/><path class="cls-2" d="M489.49,1830.07s-56.55,62.14-111.42,0C378.07,1830.07,430,1773.75,489.49,1830.07Z" transform="translate(0.26 -0.31)"/><path class="cls-3" d="M713.56,1775.57s81.44,74.11,0,146C713.56,1921.59,639.75,1853.49,713.56,1775.57Z" transform="translate(0.26 -0.31)"/><path class="cls-4" d="M928.25,1845.55s30.09-8.38,59.29,0A131.61,131.61,0,0,1,928.25,1845.55Z" transform="translate(0.26 -0.31)"/><path class="cls-4" d="M1021.72,1845.55s30.09-8.38,59.3,0A131.66,131.66,0,0,1,1021.72,1845.55Z" transform="translate(0.26 -0.31)"/><path class="cls-4" d="M914.79,1885.37s30.09-17.21,59.29,0C974.08,1885.37,946.43,1901,914.79,1885.37Z" transform="translate(0.26 -0.31)"/><path class="cls-4" d="M1035.18,1885.37s30.09-17.21,59.3,0A67.13,67.13,0,0,1,1035.18,1885.37Z" transform="translate(0.26 -0.31)"/><path class="cls-4" d="M927.5,1925s30.1-17.2,59.3,0A67.13,67.13,0,0,1,927.5,1925Z" transform="translate(0.26 -0.31)"/><path class="cls-4" d="M1021,1925s30.1-17.2,59.3,0A67.13,67.13,0,0,1,1021,1925Z" transform="translate(0.26 -0.31)"/><path class="cls-5" d="M1178.91,1805.83s47.39-52.07,93.37,0C1272.28,1805.83,1228.73,1853,1178.91,1805.83Z" transform="translate(0.26 -0.31)"/><path class="cls-5" d="M1311.26,1805.83s47.39-52.07,93.37,0C1404.63,1805.83,1361.08,1853,1311.26,1805.83Z" transform="translate(0.26 -0.31)"/><circle cx="144.32" cy="1848.92" r="18.69"/><path d="M1441.74,1986.25h288s0-221.13-144-221.13S1441.74,1986.25,1441.74,1986.25Z" transform="translate(0.26 -0.31)"/><path class="cls-1" d="M1678.86,1873.64s-94.6,103.94-186.39,0C1492.47,1873.64,1579.4,1779.42,1678.86,1873.64Z" transform="translate(0.26 -0.31)"/><circle cx="1585.64" cy="1874.82" r="18.69"/><path d="M1441.74,1738h288s0-221.13-144-221.13S1441.74,1738,1441.74,1738Z" transform="translate(0.26 -0.31)"/><path class="cls-1" d="M1678.86,1625.74s-94.6,86.52-186.39,0C1492.47,1625.74,1579.4,1547.31,1678.86,1625.74Z" transform="translate(0.26 -0.31)"/><circle cx="1585.64" cy="1626.56" r="18.69"/><path d="M1441.74,1489.73h288s0-221.13-144-221.13S1441.74,1489.73,1441.74,1489.73Z" transform="translate(0.26 -0.31)"/><path class="cls-1" d="M1678.86,1377.85s-94.6,68.87-186.39,0C1492.47,1377.85,1579.4,1315.42,1678.86,1377.85Z" transform="translate(0.26 -0.31)"/><circle cx="1585.64" cy="1378.3" r="18.69"/><path d="M1441.74,1241.47h288s0-221.12-144-221.12S1441.74,1241.47,1441.74,1241.47Z" transform="translate(0.26 -0.31)"/><path class="cls-1" d="M1678.86,1129.88s-94.6,54.75-186.39,0C1492.47,1129.88,1579.4,1080.26,1678.86,1129.88Z" transform="translate(0.26 -0.31)"/><circle cx="1585.64" cy="1130.05" r="18.69"/><path d="M1441.74,993.21h288s0-221.12-144-221.12S1441.74,993.21,1441.74,993.21Z" transform="translate(0.26 -0.31)"/><path class="cls-1" d="M1678.86,882.1s-94.6,31.8-186.39,0C1492.47,882.1,1579.4,853.27,1678.86,882.1Z" transform="translate(0.26 -0.31)"/><circle cx="1585.64" cy="881.79" r="18.69"/><path d="M1441.74,745h288s0-221.12-144-221.12S1441.74,745,1441.74,745Z" transform="translate(0.26 -0.31)"/><path class="cls-1" d="M1678.86,634.1s-94.6,19.45-186.39,0C1492.47,634.1,1579.4,616.47,1678.86,634.1Z" transform="translate(0.26 -0.31)"/><circle cx="1585.64" cy="633.53" r="18.69"/><path d="M1441.74,496.7h288s0-221.13-144-221.13S1441.74,496.7,1441.74,496.7Z" transform="translate(0.26 -0.31)"/><path class="cls-1" d="M1678.86,386.1s-94.6,7.09-186.39,0A1514.2,1514.2,0,0,1,1678.86,386.1Z" transform="translate(0.26 -0.31)"/><circle cx="1585.64" cy="385.27" r="18.69"/><path d="M1441.74,248.44h288s0-221.13-144-221.13S1441.74,248.44,1441.74,248.44Z" transform="translate(0.26 -0.31)"/><circle cx="1585.64" cy="137.01" r="18.69"/><circle cx="715.61" cy="1832.47" r="18.69"/><circle cx="1225.59" cy="1795.83" r="11.96"/><circle cx="957.52" cy="1924.08" r="7.1"/><circle cx="944.8" cy="1884.44" r="7.1"/><circle cx="958.26" cy="1845.56" r="7.1"/><circle cx="1050.99" cy="1845.56" r="7.1"/><circle cx="1065.94" cy="1884.44" r="7.1"/><circle cx="1051.73" cy="1924.08" r="7.1"/><circle cx="441.14" cy="1840.34" r="11.96"/><circle cx="427.68" cy="1891.19" r="11.96"/><circle cx="1357.94" cy="1793.59" r="11.96"/><path class="cls-5" d="M1326.94,1954.14l-34.86-145-36.19,144.45a127.2,127.2,0,0,0,71,.53Z" transform="translate(0.26 -0.31)"/></svg>