<?xml version="1.0" encoding="utf-8"?>
<!-- Generator: Adobe Illustrator 26.0.0, SVG Export Plug-In . SVG Version: 6.00 Build 0)  -->
<svg version="1.1" id="Layer_1" xmlns="http://www.w3.org/2000/svg" xmlns:xlink="http://www.w3.org/1999/xlink" x="0px" y="0px"
	 viewBox="0 0 951.1 131.8" style="enable-background:new 0 0 951.1 131.8;" xml:space="preserve">
<style type="text/css">
	.st0{fill:#FFFFFF;}
</style>
<path class="st0" d="M951.1,53.8l-62.5,12.1L850-1.1h-56.3l-5.2,50.6l-54.2,2.3L693.8-1.1L536.5,24.2l69.3,61.2l-51.1-5.2L522.2,31
	L418,51.7L372.9-1.1L268.8,8.1L299,58.6L276.1,69L232.3,5L109.4,24.9l2.1,23.7l-17.9-0.5L83.3,8.1L0,41.8v28.7l56.7-22.9l31.8,85.4
	h57.3l-48-72.9l27.2,1.6l60.5,58.6l78.6-0.2l-83.8-60.9l33.8-0.7l56.5,55.9l106.5-33.4l-53.2-55.1l28.2-2.4L391,80.9l119.8-7.8
	l14.6,28.8l164.7-1.9l-69.2-60l46.1,2.1L722,97.9l104.1-9.4L822,52l18.6,6.8l26.3,49.7l82.9-10.2L951.1,53.8z M62,47.3l0.5-0.2
	l0.1,0.2L62,47.3z"/>
</svg>
