<svg id="Layer_1" data-name="Layer 1" xmlns="http://www.w3.org/2000/svg" viewBox="0 0 710 150.06"><polygon points="0 109.83 0 135.17 64.21 140 70 64 143 58.92 143 150.06 269 143 275 31 398 41 382.55 145.47 491 145.47 491 59.68 576.35 62.75 577.5 124.02 662 127.09 662 48.96 710 52.02 710 19.85 639 13 635 92.62 600 96 595 16.79 465 21 460 112.53 411.7 107.94 424.98 13 247 0 242 106 175 106.4 171 34 52 27.51 44 104 0 109.83"/><polygon points="85 126 86.87 82 119.87 85 122.87 126 85 126"/><polygon points="306 111 310.25 56 359.43 63 352.75 105.89 306 111"/><polygon points="509 127 551 118 546 82 516 84 509 127"/><polygon points="698 84 678.51 84 678.51 126.57 702.51 126.57 698 84"/><polygon points="0 45.38 17 47 14.17 75.03 0 76.5 0 45.38"/><polygon points="189 48 224 37 224 71.94 191.36 76.5 189 48"/><polygon points="434 45 425 91 452.3 91 452.3 47.94 434 45"/><polygon points="605 31 624.38 31 628 61 608 64 605 31"/></svg>