<svg id="Layer_1" data-name="Layer 1" xmlns="http://www.w3.org/2000/svg" viewBox="0 0 799 150.06"><polygon points="0 109.83 0 135.17 72.26 140 78.78 64 160.93 58.92 160.93 150.06 302.72 143 309.47 31 447.89 41 430.5 145.47 552.55 145.47 552.55 59.68 648.6 62.75 649.89 124.02 744.98 127.09 744.98 48.96 799 52.02 799 19.85 719.1 13 714.6 92.62 675.21 96 669.59 16.79 523.29 21 517.66 112.53 463.31 107.94 478.25 13 277.96 0 272.33 106 196.94 106.4 192.44 34 58.52 27.51 49.52 104 0 109.83"/><polygon points="95.66 126 97.76 82 134.9 85 138.27 126 95.66 126"/><polygon points="344.36 111 349.14 56 404.49 63 396.97 105.89 344.36 111"/><polygon points="572.8 127 620.07 118 614.44 82 580.68 84 572.8 127"/><polygon points="785.5 84 763.56 84 763.56 126.57 790.57 126.57 785.5 84"/><polygon points="0 45.38 19.13 47 15.95 75.03 0 76.5 0 45.38"/><polygon points="212.69 48 252.08 37 252.08 71.94 215.35 76.5 212.69 48"/><polygon points="488.4 45 478.27 91 509 91 509 47.94 488.4 45"/><polygon points="680.84 31 702.65 31 706.72 61 684.21 64 680.84 31"/></svg>