<svg id="Layer_1" data-name="Layer 1" xmlns="http://www.w3.org/2000/svg" viewBox="0 0 829 150.06"><polygon points="0 109.83 0 135.17 74.97 140 81.73 64 166.97 58.92 166.97 150.06 314.09 143 321.09 31 464.71 41 446.67 145.47 573.29 145.47 573.29 59.68 672.95 62.75 674.29 124.02 772.96 127.09 772.96 48.96 829 52.02 829 19.85 746.1 13 741.43 92.62 700.56 96 694.73 16.79 542.94 21 537.1 112.53 480.7 107.94 496.21 13 288.4 0 282.56 106 204.33 106.4 199.66 34 60.72 27.51 51.38 104 0 109.83"/><polygon points="99.25 126 101.43 82 139.96 85 143.46 126 99.25 126"/><polygon points="357.29 111 362.25 56 419.67 63 411.87 105.89 357.29 111"/><polygon points="594.31 127 643.35 118 637.51 82 602.49 84 594.31 127"/><polygon points="814.99 84 792.23 84 792.23 126.57 820.25 126.57 814.99 84"/><polygon points="0 45.38 19.85 47 16.55 75.03 0 76.5 0 45.38"/><polygon points="220.68 48 261.54 37 261.54 71.94 223.43 76.5 220.68 48"/><polygon points="506.74 45 496.23 91 528.11 91 528.11 47.94 506.74 45"/><polygon points="706.4 31 729.03 31 733.26 61 709.9 64 706.4 31"/></svg>